<?xml version="1.0" encoding="utf-8"?>
<!-- Generator: Adobe Illustrator 16.0.0, SVG Export Plug-In . SVG Version: 6.00 Build 0)  -->
<!DOCTYPE svg PUBLIC "-//W3C//DTD SVG 1.1//EN" "http://www.w3.org/Graphics/SVG/1.1/DTD/svg11.dtd">
<svg version="1.1" id="Layer_1" xmlns="http://www.w3.org/2000/svg" xmlns:xlink="http://www.w3.org/1999/xlink" x="0px" y="0px"
	 width="1106px" height="255.43px" viewBox="87.5 268.785 1106 255.43" enable-background="new 87.5 268.785 1106 255.43"
	 xml:space="preserve">
<g>
	<g>
		<path fill="#FFFFFF" d="M406.457,313.211h21.873l50.686,148.271h-18.08l-11.783-35.543h-63.09l-11.78,35.543h-18.295
			L406.457,313.211z M444.521,410.376l-26.708-80.761l-27.337,80.761H444.521z"/>
		<path fill="#FFFFFF" d="M506.042,460.64c-6.666-3.225-12.028-7.675-16.088-13.354c-4.075-5.679-6.312-12.163-6.733-19.454
			l15.564-3.573c0.279,5.329,1.751,10.024,4.417,14.092c2.659,4.066,6.235,7.147,10.726,9.253c4.485,2.102,9.463,3.152,14.933,3.152
			c4.764,0,9.042-0.696,12.831-2.103c3.78-1.396,6.832-3.472,9.146-6.206c2.315-2.733,3.468-5.709,3.468-8.937
			c0-3.646-1.258-6.624-3.78-8.94c-2.53-2.312-5.615-4.131-9.257-5.464c-3.646-1.333-8.413-2.769-14.303-4.316
			c-8.134-2.101-14.755-4.201-19.876-6.304c-5.114-2.104-9.43-5.224-12.933-9.362c-3.511-4.135-5.257-9.568-5.257-16.299
			c0-5.89,1.578-11.252,4.732-16.088c3.152-4.835,7.427-8.624,12.823-11.357c5.399-2.734,11.467-4.102,18.197-4.102
			c6.59,0,12.69,1.367,18.298,4.102c5.6,2.733,10.165,6.488,13.667,11.253c3.502,4.768,5.543,10.093,6.101,15.985l-15.563,3.992
			c-0.282-6.443-2.558-11.527-6.835-15.248c-4.278-3.709-9.642-5.57-16.088-5.57c-3.646,0-6.975,0.7-9.995,2.103
			c-3.014,1.399-5.394,3.363-7.147,5.89c-1.751,2.523-2.629,5.329-2.629,8.413c0,3.649,1.266,6.624,3.789,8.938
			c2.523,2.312,5.08,3.996,7.679,5.046c2.591,1.054,7.95,2.493,16.084,4.315c7.712,2.103,14.197,4.343,19.455,6.727
			c5.257,2.388,9.642,5.61,13.144,9.675c3.502,4.071,5.261,9.117,5.261,15.143c0,6.312-1.826,12.024-5.468,17.144
			c-3.649,5.118-8.591,9.113-14.827,11.987c-6.244,2.872-13.286,4.312-21.143,4.312C520.165,465.479,512.701,463.867,506.042,460.64
			z"/>
		<path fill="#FFFFFF" d="M596.997,509.642c-6.59-2.806-12.371-6.801-17.346-11.986c-4.979-5.188-8.802-11.146-11.464-17.877
			l13.459-9.042c2.381,8.548,6.802,15.455,13.248,20.712c6.447,5.258,13.949,7.891,22.506,7.891c6.59,0,12.375-1.649,17.346-4.944
			c4.979-3.295,8.906-7.78,11.783-13.459c2.874-5.676,4.312-12.093,4.312-19.24l-0.21-14.304c-1.966,3.507-4.561,6.625-7.78,9.357
			c-3.23,2.734-6.806,4.869-10.729,6.414c-3.928,1.545-7.92,2.315-11.987,2.315c-7.291,0-13.774-1.788-19.455-5.362
			c-5.68-3.573-10.062-8.48-13.143-14.725c-3.088-6.236-4.625-13.422-4.625-21.557v-68.562h15.982v68.562
			c0,5.333,0.979,9.99,2.944,13.985c1.958,3.996,4.764,7.187,8.41,9.569c3.642,2.388,7.852,3.574,12.62,3.574
			c5.182,0,9.882-1.263,14.092-3.785c4.203-2.522,7.536-5.991,9.987-10.408c2.456-4.418,3.684-9.431,3.684-15.038v-66.461h15.982
			l0.211,106.422c0,9.953-2.103,18.891-6.312,26.812c-4.203,7.92-10.024,14.123-17.455,18.61c-7.435,4.485-15.775,6.73-25.024,6.73
			C610.596,513.849,603.588,512.447,596.997,509.642z"/>
		<path fill="#FFFFFF" d="M687.854,355.272h14.515l1.469,14.092c2.945-5.468,7.22-9.848,12.835-13.146
			c5.604-3.288,11.493-4.94,17.662-4.94c7.291,0,13.775,1.826,19.454,5.468c5.68,3.649,10.097,8.591,13.249,14.827
			c3.156,6.244,4.732,13.357,4.732,21.35v68.562h-16.192v-68.562c0-5.187-0.949-9.812-2.843-13.882
			c-1.892-4.062-4.696-7.257-8.413-9.568c-3.714-2.312-7.954-3.473-12.723-3.473c-5.046,0-9.671,1.267-13.881,3.789
			c-4.203,2.523-7.568,5.992-10.093,10.409c-2.523,4.418-3.789,9.431-3.789,15.038v66.25h-15.982V355.272L687.854,355.272z"/>
		<path fill="#FFFFFF" d="M811.301,458.116c-7.564-4.906-13.455-11.671-17.662-20.295c-4.207-8.623-6.244-18.402-6.101-29.336
			c0-11.076,1.928-20.927,5.784-29.551c3.855-8.624,9.287-15.384,16.299-20.294c7.009-4.907,15.071-7.362,24.188-7.362
			c7.01,0,13.461,1.547,19.347,4.628c5.89,3.084,10.831,7.253,14.83,12.515c3.991,5.257,6.757,11.392,8.308,18.399l-15.357,4.207
			c-1.961-7.709-5.361-13.881-10.197-18.506c-4.835-4.628-10.553-6.94-17.143-6.94c-5.604,0-10.726,1.823-15.351,5.469
			c-4.624,3.645-8.235,8.729-10.831,15.243c-2.594,6.523-3.895,13.92-3.895,22.193c0,8.274,1.438,15.636,4.315,22.079
			c2.87,6.451,6.869,11.535,11.987,15.249c5.117,3.717,10.901,5.573,17.35,5.573c5.604,0,10.688-1.329,15.244-3.996
			c4.558-2.662,8.278-6.379,11.146-11.146c2.877-4.765,4.737-10.165,5.573-16.192l15.357,3.365
			c-1.126,8.132-3.895,15.389-8.308,21.765c-4.422,6.383-9.994,11.36-16.722,14.936c-6.729,3.574-14.167,5.362-22.294,5.362
			C827.498,465.479,818.878,463.023,811.301,458.116z"/>
		<path fill="#FFFFFF" d="M941.061,312.578h31.129l50.688,148.905h-26.294l-10.303-33.02h-58.885l-10.937,33.02h-25.872
			L941.061,312.578z M980.602,408.063l-23.767-73.191l-24.181,73.191H980.602z"/>
		<path fill="#FFFFFF" d="M1036.963,312.578h58.47c9.953,0,18.855,1.971,26.708,5.895c7.849,3.924,14.056,9.392,18.611,16.399
			c4.557,7.013,6.838,15.008,6.838,23.979c0,8.974-2.244,16.928-6.732,23.872c-4.488,6.937-10.69,12.441-18.61,16.506
			c-7.92,4.067-16.793,6.101-26.61,6.101h-34.065v56.154h-24.606V312.578H1036.963z M1092.698,384.297
			c5.468,0,10.477-1.085,15.037-3.263c4.554-2.169,8.131-5.182,10.722-9.042c2.599-3.853,3.895-8.235,3.895-13.143
			s-1.262-9.287-3.784-13.147c-2.527-3.853-6.029-6.869-10.52-9.042c-4.485-2.173-9.603-3.261-15.35-3.261h-31.129v50.896
			L1092.698,384.297L1092.698,384.297z"/>
		<path fill="#FFFFFF" d="M1163.78,312.578h25.234v148.905h-25.234V312.578z"/>
	</g>
	<g>
		<path fill="#FFFFFF" d="M181.484,520.213c-48.938,0-88.751-29.677-88.751-66.152h17.576c0,26.783,31.931,48.573,71.176,48.573
			c39.245,0,71.176-21.79,71.176-48.573h17.575C270.235,490.537,230.426,520.213,181.484,520.213z"/>
	</g>
	<g>
		<path fill="#FFFFFF" d="M270.235,338.556H252.66c0-26.783-31.932-48.573-71.176-48.573c-39.244,0-71.176,21.79-71.176,48.573
			H92.732c0-36.478,39.813-66.152,88.751-66.152C230.426,272.403,270.235,302.079,270.235,338.556z"/>
	</g>
	<g>
		
			<rect x="98.905" y="387.552" transform="matrix(-0.8099 -0.5866 0.5866 -0.8099 48.6796 808.4559)" fill="#FFFFFF" width="112.891" height="17.575"/>
	</g>
	<g>
		<polygon fill="#FFFFFF" points="248.868,436.458 157.438,370.242 167.742,356.007 259.179,422.224 		"/>
	</g>
</g>
</svg>
