<svg xmlns="http://www.w3.org/2000/svg" width="0" height="0" style="position:absolute"><symbol viewBox="0 0 126 126"><mask id="a" width="126" height="126" x="0" y="0" maskUnits="userSpaceOnUse"><path d="M126 63c0 34.8-28.2 63-63 63S0 97.8 0 63 28.2 0 63 0s63 28.2 63 63z"/></mask><path d="M61.27-27L-27 61.26l4.42 4.4 88.26-88.25-4.4-4.4zm9.8 9.79L-17.2 71.03l4.4 4.4L75.48-12.8l-4.4-4.42zm9.8 9.8L-7.4 80.88l4.42 4.4L85.28-2.97l-4.4-4.4zm9.8 9.82L2.43 90.68l4.4 4.4L95.1 6.86l-4.42-4.42zm9.8 9.8l-88.25 88.26 4.42 4.4 88.26-88.25-4.42-4.4zm9.83 9.8l-88.26 88.28 4.4 4.4 88.27-88.25-4.4-4.42zm9.8 9.8L31.83 120.1l4.42 4.4 88.26-88.26-4.4-4.4zm9.8 9.83L41.64 129.9l4.4 4.42 88.27-88.26-4.4-4.4zm9.8 9.8L51.44 139.7l4.4 4.42 88.27-88.27-4.4-4.4zm9.82 9.82l-88.26 88.26 4.4 4.42 88.27-88.26-4.4-4.43z" mask="url(#a)"/></symbol><symbol viewBox="0 0 95 65"><circle cx="2.5" cy="62.501" r="2.5"/><circle cx="20.5" cy="62.501" r="2.5"/><circle cx="38.501" cy="62.501" r="2.5"/><circle cx="56.501" cy="62.501" r="2.5"/><circle cx="74.501" cy="62.501" r="2.5"/><circle cx="92.501" cy="62.501" r="2.5"/><circle cx="2.5" cy="42.501" r="2.5"/><circle cx="20.5" cy="42.501" r="2.5"/><circle cx="38.501" cy="42.501" r="2.5"/><circle cx="56.501" cy="42.501" r="2.5"/><circle cx="74.501" cy="42.501" r="2.5"/><circle cx="92.501" cy="42.501" r="2.5"/><circle cx="2.5" cy="22.5" r="2.5"/><circle cx="20.5" cy="22.5" r="2.5"/><circle cx="38.501" cy="22.5" r="2.5"/><circle cx="56.501" cy="22.5" r="2.5"/><circle cx="74.501" cy="22.5" r="2.5"/><circle cx="92.501" cy="22.5" r="2.5"/><circle cx="2.5" cy="2.5" r="2.5"/><circle cx="20.5" cy="2.5" r="2.5"/><circle cx="38.501" cy="2.5" r="2.5"/><circle cx="56.501" cy="2.5" r="2.5"/><circle cx="74.501" cy="2.5" r="2.5"/><circle cx="92.501" cy="2.5" r="2.5"/></symbol><symbol viewBox="0 0 26 18"><path d="M13 0l12.12 18H.88L13 0z"/></symbol><symbol viewBox="0 0 83 83"><path d="M0 41L41 0l41.02 41-41 41.02z"/></symbol><symbol viewBox="0 0 103 103"><circle cx="60.965" cy="98.604" r="2.5" transform="rotate(-45 60.965 98.604)"/><circle cx="73.693" cy="85.876" r="2.5" transform="rotate(-45 73.693 85.876)"/><circle cx="86.421" cy="73.148" r="2.5" transform="rotate(-45 86.42 73.148)"/><circle cx="99.148" cy="60.42" r="2.5" transform="rotate(-45 99.148 60.42)"/><circle cx="46.823" cy="84.462" r="2.5" transform="rotate(-45 46.823 84.462)"/><circle cx="59.551" cy="71.734" r="2.5" transform="rotate(-45 59.55 71.734)"/><circle cx="72.279" cy="59.006" r="2.5" transform="rotate(-45 72.279 59.006)"/><circle cx="85.006" cy="46.278" r="2.5" transform="rotate(-45 85.006 46.278)"/><circle cx="32.681" cy="70.32" r="2.5" transform="rotate(-45 32.68 70.32)"/><circle cx="45.409" cy="57.592" r="2.5" transform="rotate(-45 45.409 57.592)"/><circle cx="58.137" cy="44.864" r="2.5" transform="rotate(-45 58.137 44.864)"/><circle cx="18.538" cy="56.178" r="2.5" transform="rotate(-45 18.538 56.178)"/><circle cx="31.267" cy="43.45" r="2.5" transform="rotate(-45 31.267 43.45)"/><circle cx="4.396" cy="42.036" r="2.5" transform="rotate(-45 4.396 42.036)"/></symbol><symbol viewBox="0 0 18 18"><circle cx="9" cy="9" r="9"/></symbol><symbol viewBox="0 0 18 18"><circle cx="9" cy="9" r="9"/></symbol><symbol viewBox="0 0 127 91"><path d="M24.54.65l89.1 89.1m-77-89.1l89.1 89.1M.33.64l89.1 89.1m-77-89.1l89.1 89.1"/></symbol><symbol viewBox="0 0 122 122"><mask id="a" width="87" height="87" x="17" y="17" maskUnits="userSpaceOnUse"><path d="M91.22 30.4c16.8 16.8 16.8 44.03 0 60.82-16.8 16.8-44.02 16.8-60.8 0-16.8-16.8-16.8-44.02 0-60.81 16.78-16.8 44-16.8 60.8 0z"/></mask><path d="M16.54 18.2v85.2h4.26V18.2h-4.26zm9.45 0v85.2h4.25V18.2H26zm9.46 0v85.2h4.26V18.2h-4.26zm9.47.02v85.2h4.26V18.2h-4.27zm9.46 0v85.18h4.25V18.2H54.4zm9.47 0v85.2h4.26V18.2h-4.26zm9.45 0v85.2h4.26V18.2h-4.26zm9.47 0v85.2h4.25V18.2H82.8zm9.45 0v85.2h4.26V18.2h-4.25zm9.48 0v85.2H106V18.2h-4.27z" mask="url(#a)"/></symbol><symbol viewBox="0 0 53 48"><path d="M21.53 5.85l30.62 30.62-41.83 11.2 11.2-41.82z"/></symbol><symbol viewBox="0 0 480.011 480.011"><path d="M479.82 233.65c-4.42-95.7-85.6-169.73-181.3-165.3-89.54 4.12-161.2 75.77-165.32 165.3h-24.57l-23.2-37.4a8 8 0 0 0-6.8-3.8H8.05a8 8 0 0 0-6.8 12.22l23.1 37.23-23.1 37.24a8 8 0 0 0 6.8 12.22h70.58a8 8 0 0 0 6.8-3.8l23.5-37.9h24.27c4.42 95.7 85.6 169.72 181.3 165.3s169.74-85.6 165.32-181.3zm-405.64 41.7H22.4l15.63-25.2h51.75l-15.6 25.2zm-36.12-41.7l-15.66-25.2h51.78l15.63 25.2H38.07zM306.9 399.17c-83.95.1-153.23-65.66-157.5-149.52h32.7c4.4 68.8 63.75 120.97 132.53 116.55s120.96-63.76 116.54-132.55S367.4 112.7 298.63 117.1C236 121.14 186.1 171.04 182.1 233.66h-32.7c4.3-83.67 73.32-149.36 157.1-149.5 87-.1 157.6 70.32 157.7 157.3.13 87-70.3 157.6-157.3 157.72zm-.4-165.52h-8.2c4.42-4.54 11.7-4.65 16.24-.23s4.65 11.7.23 16.23-11.7 4.66-16.23.24a12.8 12.8 0 0 1-.24-.25h8.2a8 8 0 0 0 0-16zm8.16 34.3c14.52-4.43 22.7-19.78 18.3-34.3-4.43-14.5-19.78-22.7-34.3-18.28a27.47 27.47 0 0 0-18.28 18.28h-33.44c4.42-32.92 34.7-56.02 67.6-51.6s56.04 34.68 51.62 67.6-34.68 56.03-67.6 51.6c-26.87-3.6-48-24.73-51.62-51.6h33.44c4.42 14.52 19.77 22.7 34.28 18.28zm-.15 49.43c41.83-4.42 72.15-41.9 67.73-83.73-4.42-41.82-41.9-72.14-83.72-67.72-35.72 3.77-63.94 32-67.72 67.72h-32.7c4.43-59.92 56.6-104.92 116.5-100.5s104.94 56.58 100.52 116.5-56.58 104.93-116.5 100.5c-53.8-3.96-96.55-46.72-100.5-100.5h32.68c4.42 41.82 41.9 72.14 83.73 67.73zM80 0h64v16H80zm64 56h64v16h-64zM48 0h16v16H48zM32 152h64v16H32zm-32 0h16v16H0zm64 176h48v16H64zm-32 0h16v16H32zm128 72h16v16h-16zM32 464h64v16H32zm-32 0h16v16H0z"/></symbol><symbol viewBox="0 0 31.059 31.059"><path d="M15.53 31.06C6.97 31.06 0 24.1 0 15.53 0 6.97 6.97 0 15.53 0s15.53 6.97 15.53 15.53c0 8.56-6.97 15.53-15.53 15.53zm0-29.28c-7.58 0-13.75 6.17-13.75 13.75s6.17 13.75 13.75 13.75 13.75-6.17 13.75-13.75S23.1 1.78 15.53 1.78zM20.3 21.18a.88.88 0 0 1-.64-.26l-4.76-4.76a.9.9 0 0 1-.26-.63V5.45a.9.9 0 0 1 1.78 0v9.7l4.5 4.5a.9.9 0 0 1-.63 1.53z"/></symbol><symbol viewBox="0 0 59.986 59.986"><path d="M59.97 20.16a1 1 0 0 0-.05-.53c0-.02 0-.05-.02-.07 0-.02-.03-.03-.03-.05 0 0-.02-.02-.03-.04l-10-16a1.03 1.03 0 0 0-.16-.2.98.98 0 0 0-.3-.18s-.02-.02-.04-.03c0 0-.02 0-.03 0A.98.98 0 0 0 49 3H11a.98.98 0 0 0-.3.05c-.03 0-.04 0-.05 0 0 0-.02.02-.03.03a1 1 0 0 0-.3.17 1 1 0 0 0-.17.2l-10 16c0 .03-.02.05-.02.06 0 .03-.03.04-.04.06-.02.02-.02.05-.03.07a1 1 0 0 0 .03.8s0 .03.02.05c0 .03.04.05.06.08 0 .02.02.04.04.06L29.2 56.6l.02.02a.98.98 0 0 0 .4.3 1 1 0 0 0 .37.07c.1 0 .22-.03.34-.07 0 0 .02-.02.04-.03.05-.02.1-.05.14-.08a.97.97 0 0 0 .2-.16c.02-.02.04-.02.05-.04l29-36c.02-.02.03-.04.04-.06.03-.03.05-.05.07-.08 0-.02 0-.04.02-.06a.94.94 0 0 0 .04-.1c0-.06.02-.1.03-.16zM32.1 5h15.45L42.7 18.03 32.1 5zm8.8 14H19.1L30 5.57l10.9 13.4zm-23.68-.87L12.42 5H27.9L17.2 18.12zM41.6 21L29.8 52.6 18.27 21H41.6zM49.2 6.24L57.2 19H44.46l4.75-12.75zm-38.46 0L15.4 19H2.8l7.96-12.74zM16.14 21l10.84 29.66L3.08 21h13.06zM32.4 51.4L43.72 21H56.9L32.4 51.4z"/></symbol><symbol viewBox="0 0 512 512"><path d="M429.2 82.8C383 36.5 321.4 11 256 11S129 36.5 82.8 82.8 11 190.6 11 256s25.5 127 71.8 173.2S190.6 501 256 501s127-25.5 173.2-71.8S501 321.4 501 256s-25.5-127-71.8-173.2zM478.8 245h-95c-.9-37.8-6.2-74.2-15.5-106.5 18.1-9.3 35-21 50.5-34.8 35 37.4 57.3 86.8 60 141.3zM267 267h94.9c-.8 34.8-5.6 68.1-13.9 97.9-25.6-10.3-52.9-16.3-81-17.6V267zM403 88.4c-12.8 11.3-26.8 20.9-41.6 28.9-3.8-10.6-8.1-20.6-12.9-30-9.5-18.8-20.3-34.2-32.2-46 32.5 9.1 62 25.4 86.7 47.1zm-136-52c22.9 5.1 44.5 26.2 61.9 60.6 4.7 9.3 8.9 19.2 12.6 29.7-23.5 9.7-48.6 15.4-74.5 16.7v-107zm81.1 111.4c8.2 29.6 12.9 62.7 13.7 97.3H267v-79.6c28.2-1.3 55.5-7.4 81.1-17.7zM245 245h-94.9c.8-34.6 5.5-67.7 13.7-97.3 25.6 10.4 53 16.4 81.1 17.6V245zm.1-208.6v107c-25.9-1.3-51.1-7-74.5-16.7 3.7-10.5 7.9-20.4 12.6-29.7 17.4-34.4 39-55.5 61.9-60.6zm-49.3 4.9c-11.9 11.8-22.7 27.3-32.2 46-4.7 9.4-9 19.4-12.9 30-14.8-8-28.7-17.6-41.6-28.9 24.7-21.7 54.2-38 86.7-47.1zM93.3 103.7c15.5 13.8 32.4 25.4 50.5 34.8-9.3 32.4-14.7 68.7-15.5 106.5h-95c2.7-54.5 25-103.9 60-141.3zM33.3 267h95c.9 38.1 6.3 74.6 15.7 107.1-18 9.3-34.9 20.8-50.3 34.6-35.3-37.5-57.7-87-60.4-141.7zm76.2 157c12.8-11.2 26.7-20.8 41.4-28.7 3.8 10.3 8 20.2 12.7 29.4 9.5 18.8 20.3 34.2 32.2 46.1-32.3-9.1-61.7-25.3-86.3-46.8zm135.6 51.6c-22.9-5.1-44.5-26.2-61.9-60.6-4.6-9.1-8.7-18.8-12.4-29.1 23.4-9.7 48.5-15.4 74.3-16.6v106.3zm-81-110.7c-8.3-29.8-13.1-63.1-13.9-97.9h94.9v80.3c-28.1 1.2-55.4 7.2-81 17.6zm103 110.7V369.3c25.8 1.3 50.9 6.9 74.3 16.6-3.7 10.3-7.8 20-12.4 29.1-17.4 34.4-39 55.5-61.9 60.6zm49.3-4.9c11.9-11.8 22.7-27.3 32.2-46.1 4.7-9.2 8.9-19.1 12.7-29.4 14.7 7.9 28.6 17.5 41.4 28.7-24.6 21.6-54 37.8-86.3 46.8zm102.2-62c-15.4-13.7-32.3-25.3-50.3-34.6 9.4-32.5 14.8-69.1 15.7-107.1h95c-2.8 54.7-25.2 104.2-60.4 141.7z"/></symbol><symbol viewBox="0 0 512 512"><path d="M509.62 464.82L402 289.92c-2.94-4.8-8.05-7.65-13.66-7.65-5.62 0-10.73 2.86-13.67 7.64l-13.97 22.72a7.5 7.5 0 0 0 12.8 7.87l13.97-22.72c.07-.12.3-.48.87-.48s.8.36.87.48L496.84 472.7c.08.13.3.5.02 1.03-.3.52-.73.52-.9.52h-59.6l-166.7-270.92a16 16 0 0 0-5.94-5.67h.02v-50.98a69.43 69.43 0 0 0 18.3 2.42c17.12 0 33.17-5.96 48.86-11.78 21.75-8.08 42.3-15.7 64.5-6.8a9.28 9.28 0 0 0 8.67-.92 9.3 9.3 0 0 0 4.1-7.7V37.04a9.3 9.3 0 0 0-5.66-8.56c-28.2-12.02-52.94-2.85-76.85 6.03-22.4 8.32-43.55 16.17-66.58 5.88a7.5 7.5 0 0 0-10.58 6.86v.27a7.7 7.7 0 0 0-.2 1.75v148.4a16.02 16.02 0 0 0-5.97 5.68L163.2 331.96l-25.87-42.05c-2.94-4.77-8.05-7.62-13.67-7.62-5.6 0-10.72 2.85-13.66 7.63L2.38 464.83a16.06 16.06 0 0 0-.34 16.24 16.06 16.06 0 0 0 14 8.22h479.92a16.06 16.06 0 0 0 14-8.22 16.06 16.06 0 0 0-.34-16.24zM263.52 57.9c24.3 6.67 46.15-1.44 67.36-9.3 21-7.8 40.87-15.18 62.24-7.65v72.98c-24.4-6.68-46.26 1.43-67.47 9.3-20.95 7.78-40.8 15.15-62.14 7.65V57.9zM93.27 474.25l25.77-41.88a7.5 7.5 0 0 0-12.8-7.88l-30.6 49.75h-59.6c-.17 0-.6 0-.9-.52s-.06-.9.02-1.03L122.8 297.8c.07-.13.3-.5.86-.5s.8.37.87.5l29.85 48.5-29.8 48.42a7.5 7.5 0 0 0 12.8 7.87l117.75-191.4c.07-.1.3-.48.87-.48.57 0 .8.37.87.5l161.85 263.03H93.28z"/></symbol><symbol viewBox="0 0 491.064 491.064"><path d="M61.4 133.53c-13.22 0-24 10.77-24 24s10.78 24 24 24 24-10.77 24-24-10.76-24-24-24zm0 32c-4.4 0-8-3.6-8-8s3.6-8 8-8 8 3.6 8 8-3.58 8-8 8zM491.06 203.2l-11.3-11.32-114.5 114.48c-.42-.5-.76-1.04-1.23-1.52l-67.3-67.3 10.33-10.35-11.3-11.32L272 239.63c-12.73 12.72-32.43 14.48-47.1 5.27l58.14-57.68s0-.02.02-.02l152-152-11.32-11.32L277.4 170.22l-10.34-10.34a7.98 7.98 0 0 0-5.65-2.35h-28.68l-13.66-13.65-112-112-11.3 11.3 74.34 74.35L67.78 219.85l-56.96-52.2L0 179.44l93.4 85.6v20.48c0 2.12.85 4.16 2.35 5.66l34.6 34.6c-3.16 4.25-4.94 9.36-4.94 14.76 0 13.48 10.74 24.4 24.1 24.88.46 13.06 10.94 23.54 24 24 .46 13.06 10.94 23.54 24 24 .47 13.36 11.4 24.1 24.88 24.1 3.4 0 6.7-.7 9.73-2l.62.62c6.04 6.04 14.08 9.37 22.63 9.37 8.55 0 16.6-3.33 22.63-9.37l86.05-86.06c6.05-6.05 9.38-14.08 9.38-22.62 0-2.05-.2-4.07-.58-6.04L491.06 203.2zM79.58 230.67L181.4 128.84l20.7 20.7-100.93 100.92-21.6-19.78zm77.14 116.23a8.93 8.93 0 0 1-6.34 2.63c-4.95 0-8.97-4.02-8.97-8.97 0-2.4.94-4.64 2.63-6.34l38.07-38.06a8.93 8.93 0 0 1 6.34-2.63c4.94 0 8.97 4.03 8.97 8.97 0 2.4-.93 4.65-2.62 6.34l-38.06 38.07zm24 24a8.93 8.93 0 0 1-6.34 2.63c-4.95 0-8.97-4.02-8.97-8.97 0-2.4.94-4.64 2.63-6.34l38.07-38.06a8.93 8.93 0 0 1 6.34-2.63c4.94 0 8.97 4.03 8.97 8.97 0 2.4-.93 4.65-2.62 6.34l-38.06 38.07zm24 24a8.93 8.93 0 0 1-6.34 2.63c-4.95 0-8.97-4.02-8.97-8.97 0-2.4.94-4.64 2.63-6.34l38.07-38.06a8.93 8.93 0 0 1 6.34-2.63c4.94 0 8.97 4.03 8.97 8.97 0 2.4-.93 4.65-2.62 6.34l-38.06 38.07zm24 24a8.93 8.93 0 0 1-6.34 2.63c-4.95 0-8.97-4.02-8.97-8.97 0-2.4.94-4.64 2.63-6.34l38.07-38.06a8.93 8.93 0 0 1 6.34-2.63c4.94 0 8.97 4.03 8.97 8.97 0 2.4-.93 4.65-2.62 6.34l-38.06 38.07zm124-80.1l-86.06 86.04c-5.8 5.82-15.73 5.98-21.86.62l33.3-33.3a24.84 24.84 0 0 0 7.3-17.66c0-13.47-10.73-24.4-24.08-24.88-.46-13.06-10.94-23.54-24-24-.46-13.06-10.94-23.54-24-24-.47-13.35-11.42-24.1-24.88-24.1-6.67 0-12.94 2.6-17.66 7.32l-29.37 29.38-32-32v-17.38l104-104 10.35 10.35a7.98 7.98 0 0 0 5.66 2.33h28.7l7.97 7.98-58.8 58.35a8 8 0 0 0 .03 11.38c21.03 20.72 55.14 20.6 76-.3l2.1-2.1 67.32 67.33a15.9 15.9 0 0 1 4.7 11.32c0 4.28-1.68 8.28-4.7 11.3zM55.78 349.03l-14.04 7.68c2.64 4.8 5.48 9.6 8.47 14.24l13.46-8.66a213.98 213.98 0 0 1-7.88-13.26zm114.16 98.94l-5.6 14.98a224.94 224.94 0 0 0 15.72 5.24l4.5-15.36a212.77 212.77 0 0 1-14.62-4.86zm-54-29.53l-9.6 12.8c4.4 3.3 9 6.5 13.6 9.47l8.67-13.46a216.4 216.4 0 0 1-12.65-8.8zm25.94 16.7l-7.68 14.04c4.82 2.62 9.8 5.12 14.82 7.42l6.66-14.54a224.34 224.34 0 0 1-13.8-6.92zm-49.23-36.9l-11.32 11.3a230.82 230.82 0 0 0 12.12 11.3l10.5-12.1a219.02 219.02 0 0 1-11.3-10.5zm-20.2-23.3l-12.8 9.6a235.85 235.85 0 0 0 10.4 12.9l12.08-10.5a228.85 228.85 0 0 1-9.68-12zm-42.5-113.97L14 262.12c.38 5.48.97 11 1.74 16.46l15.84-2.26c-.72-5.08-1.27-10.24-1.63-15.34zM14 229c-.4 5.44-.6 11-.6 16.53v.03l16-.03c0-5.15.2-10.33.55-15.4L14 229zm20.3 62.48l-15.63 3.4a232.1 232.1 0 0 0 4.1 16.05l15.34-4.5a224.7 224.7 0 0 1-3.8-14.95zm8.68 29.57l-15 5.6a232.73 232.73 0 0 0 6.34 15.28l14.55-6.65a217.54 217.54 0 0 1-5.9-14.23zm398.96 14.23a220 220 0 0 1-6.92 13.8l14.04 7.68c2.63-4.82 5.13-9.8 7.43-14.82l-14.56-6.66zm-14.8 27.06a219.1 219.1 0 0 1-8.82 12.66l12.8 9.6a231.6 231.6 0 0 0 9.47-13.6l-13.46-8.66zM408.62 387a212.4 212.4 0 0 1-10.5 11.3l11.3 11.3a230.82 230.82 0 0 0 11.3-12.1L408.6 387zm44.1-80.6a218.93 218.93 0 0 1-4.86 14.62l14.98 5.6a227.76 227.76 0 0 0 5.23-15.73l-15.35-4.5zm6.52-30.12a217.28 217.28 0 0 1-2.73 15.18l15.65 3.38a229.2 229.2 0 0 0 2.92-16.3l-15.83-2.26zM386.82 408.8a220.5 220.5 0 0 1-12 9.7l9.6 12.8c4.4-3.3 8.73-6.8 12.88-10.4l-10.48-12.1zM199.5 456.66l-3.4 15.63a229.2 229.2 0 0 0 16.32 2.92l2.25-15.83a222.05 222.05 0 0 1-15.17-2.72zm261.9-211.12c0 5.15-.17 10.34-.53 15.42l15.96 1.13c.4-5.47.58-11.04.58-16.55h-16zM276.2 459.36a219.2 219.2 0 0 1-15.34 1.63l1.14 15.95c5.48-.4 11-.98 16.46-1.75l-2.26-15.84zm-30.77 2.17c-5.14 0-10.3-.17-15.4-.53l-1.12 15.96c5.46.38 11.02.57 16.54.57v-16zm116.76-34.24a217.06 217.06 0 0 1-13.25 7.86l7.7 14.04a234.4 234.4 0 0 0 14.22-8.45l-8.66-13.46zm-27.02 14.77a214.78 214.78 0 0 1-14.22 5.9l5.6 15a232.73 232.73 0 0 0 15.27-6.35l-6.66-14.55zm-28.84 10.77a223.46 223.46 0 0 1-14.96 3.8l3.4 15.64a232.1 232.1 0 0 0 16.05-4.1l-4.5-15.34zM338.73 33.82l-7.05 14.37a214.44 214.44 0 0 1 13.58 7.28l8.06-13.82a234.27 234.27 0 0 0-14.6-7.84zm-93.32-20.3l-3.34.04.24 16 3.1-.03c4.23 0 8.36.1 12.4.3l.74-16c-4.28-.2-8.64-.3-13.13-.3zm62.28 8.2l-4.5 15.36A174.86 174.86 0 0 1 317.66 42l5.83-14.9a190.52 190.52 0 0 0-15.8-5.38zm-32.65-6.55l-1.85 15.9a193.72 193.72 0 0 1 15.16 2.37l3.12-15.7a209.16 209.16 0 0 0-16.43-2.57zM161.18 29.3c-5.13 2-10.24 4.2-15.2 6.56l6.85 14.46A219.77 219.77 0 0 1 167 44.2l-5.82-14.9zm31.64-9.78a230.84 230.84 0 0 0-16 4.32l4.73 15.3a212.3 212.3 0 0 1 14.88-4.03l-3.6-15.58zm32.7-5.15a234.2 234.2 0 0 0-16.44 2l2.5 15.8c5.03-.8 10.18-1.42 15.3-1.85l-1.35-15.95z"/></symbol><symbol viewBox="0 0 480 480"><path d="M240 90.23c-61.72-.03-111.82 49.9-112 111.62a123.93 123.93 0 0 0 5.9 35.26 283.36 283.36 0 0 0 18.67 35.16c16.37 28.54 41.1 71.7 41.1 87.74a8 8 0 0 0 8 8h76.65a8 8 0 0 0 8-8c0-16.05 24.74-59.2 41.1-87.74a283.36 283.36 0 0 0 18.7-35.15 123.92 123.92 0 0 0 5.88-35.25c-.18-61.72-50.28-111.65-112-111.62zM330.94 232a333.56 333.56 0 0 1-17.4 32.27c-20.62 36-38.16 67.73-42.3 87.73H208.8c-4.14-20-21.68-51.72-42.3-87.7a333.53 333.53 0 0 1-17.44-32.3 109.5 109.5 0 0 1-5.06-30.15c0-53.02 42.98-96 96-96s96 42.98 96 96a109.5 109.5 0 0 1-5.06 30.15zm-52 228.63A8 8 0 0 0 268 457.7l-10.94 6.3h-34.12L212 457.7a8 8 0 0 0-10.94 2.93 8 8 0 0 0 2.94 10.94l12.8 7.37a8 8 0 0 0 4 1.06h38.4a8 8 0 0 0 4-1.06l12.8-7.37a8 8 0 0 0 2.94-10.94zm1.02-75.83a8 8 0 0 0-8.76-7.16l-64 6.4A8 8 0 0 0 208 400c.26 0 .53 0 .8-.04l64-6.4a8 8 0 0 0 7.16-8.76zm0 24a8 8 0 0 0-8.76-7.16l-64 6.4A8 8 0 0 0 208 424c.26 0 .53 0 .8-.04l64-6.4a8 8 0 0 0 7.16-8.76zm0 24a8 8 0 0 0-8.76-7.16l-64 6.4A8 8 0 0 0 208 448c.26 0 .53 0 .8-.04l64-6.4a8 8 0 0 0 7.16-8.76zM240 0a8 8 0 0 0-8 8v56a8 8 0 0 0 16 0V8a8 8 0 0 0-8-8zm147.28 60.92a8 8 0 0 0-11.5 0l-39.6 39.6a8 8 0 0 0-.2 11.3 8 8 0 0 0 11.5 0l39.6-39.6a8 8 0 0 0 .2-11.3zM440 200h-56a8 8 0 0 0 0 16h56a8 8 0 0 0 0-16zm-52.92 143.77l-39.6-39.6a8 8 0 0 0-11.3 0 8 8 0 0 0 0 11.3l39.6 39.6a8 8 0 0 0 11.3-.2 8 8 0 0 0 0-11.1zm-243.44-39.6a8 8 0 0 0-11.12 0l-39.6 39.6a8 8 0 0 0 11.3 11.3l39.6-39.6a8 8 0 0 0-.18-11.3zM96 200H40a8 8 0 0 0 0 16h56a8 8 0 0 0 0-16zm47.83-99.48l-39.6-39.6a8 8 0 1 0-11.3 11.3l39.6 39.6a7.94 7.94 0 0 0 5.65 2.36 8 8 0 0 0 5.65-13.66zM290.35 216.36a8 8 0 0 0-4.88.06L240 231.57l-45.47-15.15a8 8 0 0 0-10.18 9.93l32 104a8 8 0 1 0 15.3-4.7l-27.43-89.15 33.25 11.08a7.92 7.92 0 0 0 5.06 0l33.25-11.08-27.43 89.15a8 8 0 1 0 15.3 4.7l32-104a8 8 0 0 0-5.3-10z"/></symbol><symbol viewBox="0 0 31.444 31.444"><path d="M1.12 16.84a1.12 1.12 0 0 1-1.1-1.13c0-.6.48-1.1 1.1-1.1H14.6V1.13A1.13 1.13 0 0 1 15.7 0c.62 0 1.1.5 1.1 1.13V14.6h13.5c.6 0 1.1.5 1.1 1.1s-.5 1.14-1.1 1.14H16.8v13.48c0 .62-.48 1.12-1.1 1.12a1.13 1.13 0 0 1-1.13-1.12V16.84H1.1z"/></symbol><symbol viewBox="0 0 480 480"><path d="M472 80H280a8 8 0 0 0-8 8v72a8 8 0 0 0 10.53 7.58l10.05-3.35c10.92-3.57 22.67 2.38 26.24 13.3 3.58 10.92-2.38 22.66-13.3 26.24a20.8 20.8 0 0 1-12.94 0l-10.05-3.35A8 8 0 0 0 272 208v64h-64a8 8 0 0 0-7.58 10.53l3.35 10.05c3.57 10.92-2.38 22.67-13.3 26.24-10.92 3.58-22.67-2.38-26.24-13.3a20.8 20.8 0 0 1 0-12.94l3.35-10.05A8 8 0 0 0 160 272H88a8 8 0 0 0-8 8v192a8 8 0 0 0 8 8h384a8 8 0 0 0 8-8V88a8 8 0 0 0-8-8zM272.4 397.48a8 8 0 0 0-.4 2.52v64H96V288h52.9c-6.1 19.38 4.65 40.05 24.03 46.16 19.38 6.12 40.05-4.64 46.17-24.02a36.8 36.8 0 0 0 0-22.14H272v64a8 8 0 0 0 10.53 7.58l10.05-3.35c10.92-3.57 22.67 2.38 26.24 13.3 3.58 10.92-2.38 22.66-13.3 26.24a20.8 20.8 0 0 1-12.94 0l-10.05-3.35a8 8 0 0 0-10.12 5.06zM464 464H288v-52.9c19.38 6.1 40.05-4.65 46.16-24.03 6.12-19.4-4.64-40.05-24.02-46.17a36.8 36.8 0 0 0-22.14 0V288h64a8 8 0 0 0 7.58-10.53l-3.35-10.05c-3.57-10.92 2.38-22.67 13.3-26.24 10.92-3.58 22.66 2.38 26.24 13.3a20.8 20.8 0 0 1 0 12.94l-3.35 10.05A8 8 0 0 0 400 288h64v176zm0-192h-52.9c6.1-19.38-4.65-40.05-24.03-46.16-19.4-6.12-40.05 4.64-46.17 24.02a36.8 36.8 0 0 0 0 22.14H288v-52.9a36.45 36.45 0 0 0 32.7-5.23c16.56-11.8 20.4-34.78 8.6-51.33-9.32-13.06-26.03-18.58-41.3-13.64V96h176v176zM230.14 68.9a36.8 36.8 0 0 0-22.14 0V8a8 8 0 0 0-8-8H8a8 8 0 0 0-8 8v192a8 8 0 0 0 8 8h60.9c-6.1 19.38 4.65 40.05 24.03 46.16s40.05-4.64 46.17-24.02a36.8 36.8 0 0 0 0-22.14H200a8 8 0 0 0 8-8v-60.9c19.38 6.1 40.05-4.65 46.16-24.03 6.12-19.38-4.64-40.05-24.02-46.17zm-4.6 54.87a20.8 20.8 0 0 1-12.96 0l-10.05-3.35A8 8 0 0 0 192 128v64h-64a8 8 0 0 0-7.58 10.53l3.35 10.05c3.57 10.92-2.38 22.67-13.3 26.24-10.92 3.58-22.66-2.38-26.24-13.3a20.8 20.8 0 0 1 0-12.94l3.35-10.05A8 8 0 0 0 80 192H16V16h176v64a8 8 0 0 0 10.53 7.58l10.05-3.35c10.92-3.57 22.67 2.38 26.24 13.3 3.58 10.92-2.38 22.66-13.3 26.24z"/></symbol><symbol viewBox="0 0 32 32"><path d="M29.33 3H25V1a1 1 0 1 0-2 0v2h-6V1a1 1 0 1 0-2 0v2H9V1a1 1 0 1 0-2 0v2H2.67A2.67 2.67 0 0 0 0 5.67v23.66A2.67 2.67 0 0 0 2.67 32h26.66A2.67 2.67 0 0 0 32 29.33V5.67A2.67 2.67 0 0 0 29.33 3zM30 29.33a.67.67 0 0 1-.67.67H2.67a.67.67 0 0 1-.67-.67V5.67c0-.37.3-.67.67-.67H7v2a1 1 0 1 0 2 0V5h6v2a1 1 0 1 0 2 0V5h6v2a1 1 0 1 0 2 0V5h4.33c.37 0 .67.3.67.67v23.66zM7 12h4v3H7zm0 5h4v3H7zm0 5h4v3H7zm7 0h4v3h-4zm0-5h4v3h-4zm0-5h4v3h-4zm7 10h4v3h-4zm0-5h4v3h-4zm0-5h4v3h-4z"/></symbol><symbol viewBox="0 0 512 512"><path d="M504.5 75.5c-10-10-26.2-10-36.2 0L161.6 382.2 43.7 264.3c-10-10-26.2-10-36.2 0-10 10-10 26.22 0 36.2l136 136c10 10 26.2 10 36.2 0l324.8-324.8c10-10 10-26.2 0-36.2z"/></symbol></svg>