<svg width="126" height="126" viewBox="0 0 126 126" fill="none" xmlns="http://www.w3.org/2000/svg">
<mask id="mask0" mask-type="alpha" maskUnits="userSpaceOnUse" x="0" y="0" width="126" height="126">
<path d="M126 63C126 97.7939 97.7939 126 63 126C28.2061 126 0 97.7939 0 63C0 28.2061 28.2061 0 63 0C97.7939 0 126 28.2061 126 63Z"/>
</mask>
<g mask="url(#mask0)">
<path d="M61.2694 -27.0047L-26.9917 61.2563L-22.5793 65.6687L65.6817 -22.5924L61.2694 -27.0047Z"/>
<path d="M71.0589 -17.2147L-17.2021 71.0464L-12.7898 75.4587L75.4712 -12.8023L71.0589 -17.2147Z"/>
<path d="M80.8724 -7.39484L-7.38867 80.8662L-2.97632 85.2786L85.2847 -2.98249L80.8724 -7.39484Z"/>
<path d="M90.6785 2.42205L2.41748 90.6831L6.82983 95.0955L95.0909 6.83441L90.6785 2.42205Z"/>
<path d="M100.485 12.215L12.2236 100.476L16.636 104.888L104.897 16.6274L100.485 12.215Z"/>
<path d="M110.298 22.0353L22.0371 110.296L26.4495 114.709L114.711 26.4476L110.298 22.0353Z"/>
<path d="M120.095 31.8322L31.8335 120.093L36.2458 124.506L124.507 36.2445L120.095 31.8322Z"/>
<path d="M129.901 41.6452L41.6401 129.906L46.0525 134.319L134.314 46.0575L129.901 41.6452Z"/>
<path d="M139.698 51.4421L51.4365 139.703L55.8489 144.115L144.11 55.8544L139.698 51.4421Z"/>
<path d="M149.521 61.2721L61.2598 149.533L65.6721 153.946L153.933 65.6845L149.521 61.2721Z"/>
</g>
</svg>
