<svg width="95" height="65" viewBox="0 0 95 65" fill="none" xmlns="http://www.w3.org/2000/svg">
<circle cx="2.50049" cy="62.5005" r="2.5"/>
<circle cx="20.5005" cy="62.5005" r="2.5"/>
<circle cx="38.5005" cy="62.5005" r="2.5"/>
<circle cx="56.5005" cy="62.5005" r="2.5"/>
<circle cx="74.5005" cy="62.5005" r="2.5"/>
<circle cx="92.5005" cy="62.5005" r="2.5"/>
<circle cx="2.50049" cy="42.5005" r="2.5"/>
<circle cx="20.5005" cy="42.5005" r="2.5"/>
<circle cx="38.5005" cy="42.5005" r="2.5"/>
<circle cx="56.5005" cy="42.5005" r="2.5"/>
<circle cx="74.5005" cy="42.5005" r="2.5"/>
<circle cx="92.5005" cy="42.5005" r="2.5"/>
<circle cx="2.50049" cy="22.5005" r="2.5"/>
<circle cx="20.5005" cy="22.5005" r="2.5"/>
<circle cx="38.5005" cy="22.5005" r="2.5"/>
<circle cx="56.5005" cy="22.5005" r="2.5"/>
<circle cx="74.5005" cy="22.5005" r="2.5"/>
<circle cx="92.5005" cy="22.5005" r="2.5"/>
<circle cx="2.50049" cy="2.50049" r="2.5"/>
<circle cx="20.5005" cy="2.50049" r="2.5"/>
<circle cx="38.5005" cy="2.50049" r="2.5"/>
<circle cx="56.5005" cy="2.50049" r="2.5"/>
<circle cx="74.5005" cy="2.50049" r="2.5"/>
<circle cx="92.5005" cy="2.50049" r="2.5"/>
</svg>
