<svg width="103" height="103" viewBox="0 0 103 103" fill="none" xmlns="http://www.w3.org/2000/svg">
<circle cx="60.9647" cy="98.604" r="2.5" transform="rotate(-45 60.9647 98.604)"/>
<circle cx="73.6928" cy="85.876" r="2.5" transform="rotate(-45 73.6928 85.876)"/>
<circle cx="86.4208" cy="73.1479" r="2.5" transform="rotate(-45 86.4208 73.1479)"/>
<circle cx="99.1483" cy="60.4204" r="2.5" transform="rotate(-45 99.1483 60.4204)"/>
<circle cx="46.8226" cy="84.4619" r="2.5" transform="rotate(-45 46.8226 84.4619)"/>
<circle cx="59.5507" cy="71.7339" r="2.5" transform="rotate(-45 59.5507 71.7339)"/>
<circle cx="72.2787" cy="59.0059" r="2.5" transform="rotate(-45 72.2787 59.0059)"/>
<circle cx="85.0062" cy="46.2783" r="2.5" transform="rotate(-45 85.0062 46.2783)"/>
<circle cx="32.6806" cy="70.3198" r="2.5" transform="rotate(-45 32.6806 70.3198)"/>
<circle cx="45.4086" cy="57.5918" r="2.5" transform="rotate(-45 45.4086 57.5918)"/>
<circle cx="58.1366" cy="44.8638" r="2.5" transform="rotate(-45 58.1366 44.8638)"/>
<circle cx="18.5385" cy="56.1777" r="2.5" transform="rotate(-45 18.5385 56.1777)"/>
<circle cx="31.2665" cy="43.4497" r="2.5" transform="rotate(-45 31.2665 43.4497)"/>
<circle cx="4.39637" cy="42.0356" r="2.5" transform="rotate(-45 4.39637 42.0356)"/>
</svg>
