<svg width="122" height="122" viewBox="0 0 122 122" fill="none" xmlns="http://www.w3.org/2000/svg">
<mask id="mask0" maskUnits="userSpaceOnUse" x="17" y="17" width="87" height="87">
<path d="M91.2168 30.4054C108.009 47.198 108.009 74.4241 91.2168 91.2166C74.4242 108.009 47.1981 108.009 30.4056 91.2166C13.613 74.4241 13.613 47.198 30.4056 30.4054C47.1981 13.6129 74.4242 13.6129 91.2168 30.4054Z"/>
</mask>
<g mask="url(#mask0)">
<path d="M16.5371 18.2077V103.402H20.7962V18.2077H16.5371Z"/>
<path d="M25.9868 18.2078V103.402H30.2459V18.2078H25.9868Z"/>
<path d="M35.4624 18.2107V103.405H39.7215V18.2107H35.4624Z"/>
<path d="M44.9331 18.2161V103.411H49.1922V18.2161H44.9331Z"/>
<path d="M54.3921 18.2097V103.404H58.6511V18.2097H54.3921Z"/>
<path d="M63.8677 18.2126V103.407H68.1267V18.2126H63.8677Z"/>
<path d="M73.3242 18.2131V103.408H77.5833V18.2131H73.3242Z"/>
<path d="M82.7935 18.216V103.411H87.0525V18.216H82.7935Z"/>
<path d="M92.2495 18.2165V103.411H96.5086V18.2165H92.2495Z"/>
<path d="M101.735 18.2199V103.415H105.994V18.2199H101.735Z"/>
</g>
</svg>
