<?xml version="1.0" encoding="iso-8859-1"?>
<!-- Generator: Adobe Illustrator 19.0.0, SVG Export Plug-In . SVG Version: 6.00 Build 0)  -->
<svg version="1.1" id="Capa_1" xmlns="http://www.w3.org/2000/svg" xmlns:xlink="http://www.w3.org/1999/xlink" x="0px" y="0px"
	 viewBox="0 0 480.011 480.011" style="enable-background:new 0 0 480.011 480.011;" xml:space="preserve">
<g>
	<g>
		<path d="M479.823,233.653c-4.418-95.717-85.594-169.73-181.311-165.311c-89.531,4.133-161.179,75.78-165.311,165.311h-24.568
			l-23.2-37.416c-1.459-2.353-4.031-3.784-6.8-3.784H8.048c-4.418-0.001-8,3.581-8.001,7.999c0,1.49,0.416,2.951,1.201,4.217
			l23.096,37.232l-23.096,37.24c-2.328,3.755-1.172,8.686,2.583,11.015c1.266,0.785,2.727,1.201,4.217,1.201h70.584
			c2.769,0,5.341-1.431,6.8-3.784l23.512-37.92H133.2c4.418,95.717,85.594,169.73,181.311,165.311S484.241,329.371,479.823,233.653z
			 M74.176,275.357H22.4l15.632-25.2h51.752L74.176,275.357z M38.056,233.653l-15.656-25.2h51.776l15.632,25.2H38.056z
			 M306.914,399.165c-83.96,0.109-153.246-65.66-157.506-149.512h32.68c4.418,68.783,63.76,120.962,132.543,116.543
			s120.962-63.76,116.543-132.543s-63.76-120.962-132.543-116.543c-62.623,4.023-112.521,53.92-116.543,116.543h-32.68
			c4.284-83.676,73.31-149.363,157.096-149.496c86.987-0.113,157.596,70.312,157.709,157.299
			C464.326,328.443,393.901,399.052,306.914,399.165z M306.496,233.653h-8.192c4.418-4.547,11.686-4.652,16.233-0.234
			s4.652,11.686,0.234,16.234s-11.686,4.652-16.234,0.233c-0.079-0.077-0.157-0.155-0.233-0.233h8.192c4.418,0,8-3.582,8-8
			S310.914,233.653,306.496,233.653z M314.665,267.935c14.515-4.418,22.7-19.767,18.281-34.281
			c-4.418-14.515-19.767-22.7-34.281-18.281c-8.76,2.666-15.615,9.522-18.281,18.281h-33.44c4.418-32.921,34.688-56.028,67.61-51.61
			s56.028,34.688,51.61,67.61s-34.688,56.028-67.61,51.61c-26.868-3.606-48.004-24.741-51.61-51.61h33.44
			C284.802,264.168,300.151,272.353,314.665,267.935z M314.507,317.376c41.82-4.418,72.141-41.902,67.723-83.723
			c-4.418-41.82-41.902-72.141-83.723-67.723c-35.722,3.774-63.949,32-67.723,67.723h-32.696
			c4.418-59.926,56.58-104.924,116.505-100.505s104.924,56.58,100.505,116.505s-56.58,104.924-116.505,100.506
			c-53.78-3.965-96.54-46.726-100.505-100.506h32.696C235.202,291.474,272.686,321.794,314.507,317.376z"/>
	</g>
</g>
<g>
	<g>
		<rect x="80" y="0.005" width="64" height="16"/>
	</g>
</g>
<g>
	<g>
		<rect x="144" y="56.005" width="64" height="16"/>
	</g>
</g>
<g>
	<g>
		<rect x="48" y="0.005" width="16" height="16"/>
	</g>
</g>
<g>
	<g>
		<rect x="32" y="152.005" width="64" height="16"/>
	</g>
</g>
<g>
	<g>
		<rect y="152.005" width="16" height="16"/>
	</g>
</g>
<g>
	<g>
		<rect x="64" y="328.005" width="48" height="16"/>
	</g>
</g>
<g>
	<g>
		<rect x="32" y="328.005" width="16" height="16"/>
	</g>
</g>
<g>
	<g>
		<rect x="160" y="400.005" width="16" height="16"/>
	</g>
</g>
<g>
	<g>
		<rect x="32" y="464.005" width="64" height="16"/>
	</g>
</g>
<g>
	<g>
		<rect y="464.005" width="16" height="16"/>
	</g>
</g>
<g>
</g>
<g>
</g>
<g>
</g>
<g>
</g>
<g>
</g>
<g>
</g>
<g>
</g>
<g>
</g>
<g>
</g>
<g>
</g>
<g>
</g>
<g>
</g>
<g>
</g>
<g>
</g>
<g>
</g>
</svg>
