<?xml version="1.0" encoding="iso-8859-1"?>
<!-- Generator: Adobe Illustrator 19.1.0, SVG Export Plug-In . SVG Version: 6.00 Build 0)  -->
<svg version="1.1" id="Capa_1" xmlns="http://www.w3.org/2000/svg" xmlns:xlink="http://www.w3.org/1999/xlink" x="0px" y="0px"
	 viewBox="0 0 31.059 31.059" style="enable-background:new 0 0 31.059 31.059;" xml:space="preserve">
<g>
	<g>
		<path d="M15.529,31.059C6.966,31.059,0,24.093,0,15.529C0,6.967,6.966,0,15.529,0
			s15.529,6.967,15.529,15.529C31.059,24.093,24.092,31.059,15.529,31.059z M15.529,1.775c-7.584,0-13.754,6.17-13.754,13.754
			c0,7.585,6.17,13.755,13.754,13.755c7.584,0,13.754-6.17,13.754-13.755C29.284,7.945,23.114,1.775,15.529,1.775z"/>
	</g>
	<g>
		<path d="M20.292,21.179c-0.228,0-0.454-0.086-0.628-0.26l-4.762-4.762c-0.167-0.167-0.26-0.392-0.26-0.628
			V5.454c0-0.49,0.397-0.887,0.888-0.887c0.49,0,0.887,0.396,0.887,0.887v9.708l4.502,4.502c0.347,0.347,0.347,0.909,0,1.255
			C20.745,21.093,20.518,21.179,20.292,21.179z"/>
	</g>
</g>
<g>
</g>
<g>
</g>
<g>
</g>
<g>
</g>
<g>
</g>
<g>
</g>
<g>
</g>
<g>
</g>
<g>
</g>
<g>
</g>
<g>
</g>
<g>
</g>
<g>
</g>
<g>
</g>
<g>
</g>
</svg>
