<?xml version="1.0" encoding="iso-8859-1"?>
<!-- Generator: Adobe Illustrator 19.0.0, SVG Export Plug-In . SVG Version: 6.00 Build 0)  -->
<svg version="1.1" id="Layer_1" xmlns="http://www.w3.org/2000/svg" xmlns:xlink="http://www.w3.org/1999/xlink" x="0px" y="0px"
	 viewBox="0 0 491.064 491.064" style="enable-background:new 0 0 491.064 491.064;" xml:space="preserve">
<g>
	<g>
		<path d="M61.408,133.532c-13.232,0-24,10.768-24,24s10.768,24,24,24s24-10.768,24-24S74.64,133.532,61.408,133.532z
			 M61.408,165.532c-4.408,0-8-3.592-8-8s3.592-8,8-8s8,3.592,8,8S65.816,165.532,61.408,165.532z"/>
	</g>
</g>
<g>
	<g>
		<path d="M491.064,203.188l-11.312-11.312l-114.48,114.48c-0.432-0.488-0.776-1.04-1.24-1.512l-67.312-67.312l10.344-10.344
			l-11.312-11.312L272,239.628c-12.728,12.72-32.432,14.48-47.096,5.272l58.136-57.68c0.008-0.008,0.008-0.016,0.016-0.024l152-152
			l-11.312-11.312L277.408,170.22l-10.344-10.344c-1.496-1.504-3.536-2.344-5.656-2.344H232.72l-13.656-13.656l-112-112
			L95.752,43.188l74.344,74.344l-102.32,102.32l-56.96-52.216L0,179.436l93.408,85.616v20.48c0,2.12,0.84,4.16,2.344,5.656
			l34.6,34.6c-3.16,4.264-4.944,9.368-4.944,14.776c0,13.472,10.736,24.408,24.088,24.88c0.464,13.056,10.944,23.536,24,24
			c0.464,13.056,10.944,23.536,24,24c0.472,13.352,11.416,24.088,24.88,24.088c3.4,0,6.696-0.696,9.736-1.984l0.608,0.608
			c6.04,6.048,14.08,9.376,22.632,9.376c8.552,0,16.584-3.328,22.624-9.376l86.056-86.056c6.048-6.048,9.376-14.08,9.376-22.624
			c0-2.048-0.216-4.064-0.592-6.04L491.064,203.188z M79.584,230.676l101.824-101.832l20.688,20.688L101.168,250.46L79.584,230.676z
			 M156.72,346.908c-1.696,1.688-3.944,2.624-6.344,2.624c-4.944,0-8.968-4.024-8.968-8.968c0-2.4,0.936-4.648,2.624-6.344
			l38.064-38.064c1.696-1.688,3.944-2.624,6.344-2.624c4.944,0,8.968,4.024,8.968,8.968c0,2.4-0.936,4.648-2.624,6.344
			L156.72,346.908z M180.72,370.908c-1.696,1.688-3.944,2.624-6.344,2.624c-4.944,0-8.968-4.024-8.968-8.968
			c0-2.4,0.936-4.648,2.624-6.344l38.064-38.064c1.696-1.688,3.944-2.624,6.344-2.624c4.944,0,8.968,4.024,8.968,8.968
			c0,2.4-0.936,4.648-2.624,6.344L180.72,370.908z M204.72,394.908c-1.696,1.688-3.944,2.624-6.344,2.624
			c-4.944,0-8.968-4.024-8.968-8.968c0-2.4,0.936-4.648,2.624-6.344l38.064-38.064c1.696-1.688,3.944-2.624,6.344-2.624
			c4.944,0,8.968,4.024,8.968,8.968c0,2.4-0.936,4.648-2.624,6.344L204.72,394.908z M228.72,418.908
			c-1.696,1.688-3.944,2.624-6.344,2.624c-4.944,0-8.968-4.024-8.968-8.968c0-2.4,0.936-4.648,2.624-6.344l38.064-38.064
			c1.696-1.688,3.944-2.624,6.344-2.624c4.944,0,8.968,4.024,8.968,8.968c0,2.4-0.936,4.648-2.624,6.344L228.72,418.908z
			 M352.72,338.788l-86.056,86.056c-5.816,5.816-15.736,5.976-21.864,0.616l33.304-33.304c4.704-4.712,7.304-10.984,7.304-17.656
			c0-13.472-10.736-24.408-24.088-24.88c-0.464-13.056-10.944-23.536-24-24c-0.464-13.056-10.944-23.536-24-24
			c-0.472-13.352-11.416-24.088-24.88-24.088c-6.672,0-12.944,2.6-17.656,7.312l-29.376,29.376l-32-32v-17.376l104-104
			l10.344,10.344c1.496,1.504,3.536,2.344,5.656,2.344h28.688l7.976,7.976l-58.8,58.344c-1.512,1.504-2.368,3.56-2.36,5.696
			c0.008,2.136,0.864,4.184,2.384,5.68c21.032,20.72,55.144,20.592,76.016-0.296l2.096-2.088l67.312,67.312
			c3.024,3.024,4.688,7.04,4.688,11.32C357.408,331.756,355.744,335.764,352.72,338.788z"/>
	</g>
</g>
<g>
	<g>
		<path d="M55.784,349.044l-14.04,7.68c2.632,4.808,5.48,9.6,8.464,14.232l13.456-8.656C60.88,357.98,58.232,353.524,55.784,349.044
			z"/>
	</g>
</g>
<g>
	<g>
		<path d="M169.936,447.98l-5.608,14.984c5.128,1.92,10.416,3.68,15.728,5.232l4.496-15.352
			C179.616,451.396,174.704,449.764,169.936,447.98z"/>
	</g>
</g>
<g>
	<g>
		<path d="M115.952,418.452l-9.608,12.8c4.4,3.304,8.984,6.488,13.608,9.464l8.656-13.456
			C124.304,424.484,120.04,421.524,115.952,418.452z"/>
	</g>
</g>
<g>
	<g>
		<path d="M141.88,435.156l-7.68,14.032c4.816,2.632,9.8,5.136,14.816,7.432l6.664-14.544
			C151.008,439.932,146.368,437.604,141.88,435.156z"/>
	</g>
</g>
<g>
	<g>
		<path d="M92.648,398.244l-11.32,11.304c3.888,3.896,7.968,7.696,12.12,11.296l10.488-12.088
			C100.064,405.404,96.272,401.86,92.648,398.244z"/>
	</g>
</g>
<g>
	<g>
		<path d="M72.448,374.948l-12.8,9.6c3.312,4.416,6.808,8.752,10.392,12.888l12.088-10.488C78.8,383.1,75.544,379.06,72.448,374.948
			z"/>
	</g>
</g>
<g>
	<g>
		<path d="M29.952,260.98l-15.96,1.136c0.384,5.48,0.976,11.016,1.752,16.464l15.84-2.256
			C30.864,271.244,30.312,266.084,29.952,260.98z"/>
	</g>
</g>
<g>
	<g>
		<path d="M13.992,229.004c-0.392,5.44-0.584,11-0.584,16.528v0.024l16-0.024c0-5.152,0.184-10.336,0.544-15.392L13.992,229.004z"/>
	</g>
</g>
<g>
	<g>
		<path d="M34.304,291.484l-15.632,3.4c1.168,5.384,2.544,10.784,4.088,16.048l15.352-4.496
			C36.68,301.532,35.4,296.5,34.304,291.484z"/>
	</g>
</g>
<g>
	<g>
		<path d="M42.976,321.052l-14.992,5.6c1.92,5.136,4.048,10.28,6.336,15.28l14.552-6.648
			C46.744,330.62,44.76,325.836,42.976,321.052z"/>
	</g>
</g>
<g>
	<g>
		<path d="M441.944,335.276c-2.144,4.672-4.472,9.312-6.928,13.8l14.04,7.68c2.632-4.816,5.136-9.8,7.432-14.816L441.944,335.276z"
			/>
	</g>
</g>
<g>
	<g>
		<path d="M427.136,362.34c-2.784,4.32-5.752,8.576-8.816,12.664l12.8,9.608c3.296-4.384,6.48-8.968,9.472-13.608L427.136,362.34z"
			/>
	</g>
</g>
<g>
	<g>
		<path d="M408.624,387.004c-3.352,3.872-6.888,7.672-10.512,11.288l11.304,11.32c3.896-3.888,7.696-7.968,11.296-12.12
			L408.624,387.004z"/>
	</g>
</g>
<g>
	<g>
		<path d="M452.72,306.396c-1.448,4.92-3.08,9.84-4.864,14.624l14.984,5.6c1.928-5.144,3.68-10.44,5.232-15.728L452.72,306.396z"/>
	</g>
</g>
<g>
	<g>
		<path d="M459.24,276.284c-0.728,5.088-1.648,10.192-2.728,15.176l15.64,3.384c1.16-5.352,2.144-10.832,2.92-16.304L459.24,276.284
			z"/>
	</g>
</g>
<g>
	<g>
		<path d="M386.816,408.812c-3.856,3.344-7.896,6.6-12.008,9.688l9.6,12.8c4.408-3.304,8.744-6.8,12.888-10.392L386.816,408.812z"/>
	</g>
</g>
<g>
	<g>
		<path d="M199.496,456.652l-3.384,15.632c5.352,1.16,10.832,2.144,16.304,2.92l2.256-15.832
			C209.584,458.644,204.48,457.724,199.496,456.652z"/>
	</g>
</g>
<g>
	<g>
		<path d="M461.408,245.532c0,5.144-0.176,10.336-0.536,15.416l15.96,1.128c0.384-5.464,0.576-11.032,0.576-16.544H461.408z"/>
	</g>
</g>
<g>
	<g>
		<path d="M276.184,459.356c-5.072,0.72-10.232,1.272-15.344,1.632l1.136,15.96c5.48-0.384,11.016-0.976,16.464-1.752
			L276.184,459.356z"/>
	</g>
</g>
<g>
	<g>
		<path d="M245.408,461.532c-5.144,0-10.32-0.176-15.4-0.536l-1.128,15.96c5.456,0.384,11.024,0.576,16.536,0.576L245.408,461.532z"
			/>
	</g>
</g>
<g>
	<g>
		<path d="M362.16,427.292c-4.288,2.76-8.744,5.408-13.248,7.872l7.68,14.04c4.832-2.648,9.616-5.488,14.224-8.456L362.16,427.292z"
			/>
	</g>
</g>
<g>
	<g>
		<path d="M335.144,442.068c-4.664,2.128-9.448,4.12-14.224,5.896l5.592,14.992c5.136-1.92,10.28-4.048,15.28-6.336L335.144,442.068
			z"/>
	</g>
</g>
<g>
	<g>
		<path d="M306.296,452.836c-4.904,1.432-9.928,2.712-14.952,3.808l3.4,15.632c5.384-1.168,10.784-2.544,16.048-4.088
			L306.296,452.836z"/>
	</g>
</g>
<g>
	<g>
		<path d="M338.728,33.82l-7.048,14.368c4.44,2.176,9.008,4.632,13.576,7.296l8.064-13.824
			C348.416,38.804,343.504,36.164,338.728,33.82z"/>
	</g>
</g>
<g>
	<g>
		<path d="M245.408,13.532l-3.344,0.024l0.232,16l3.112-0.024c4.224,0,8.352,0.096,12.384,0.288l0.752-15.984
			C254.264,13.636,249.896,13.532,245.408,13.532z"/>
	</g>
</g>
<g>
	<g>
		<path d="M307.68,21.716l-4.488,15.36c4.84,1.416,9.704,3.072,14.456,4.928l5.832-14.896
			C318.288,25.076,312.976,23.268,307.68,21.716z"/>
	</g>
</g>
<g>
	<g>
		<path d="M275.032,15.172l-1.856,15.888c5.168,0.608,10.272,1.408,15.168,2.384l3.12-15.696
			C286.16,16.692,280.632,15.828,275.032,15.172z"/>
	</g>
</g>
<g>
	<g>
		<path d="M161.176,29.292c-5.128,2-10.24,4.208-15.2,6.568l6.856,14.456c4.624-2.192,9.392-4.256,14.168-6.12L161.176,29.292z"/>
	</g>
</g>
<g>
	<g>
		<path d="M192.816,19.524c-5.368,1.248-10.752,2.696-15.992,4.32l4.728,15.288c4.872-1.512,9.88-2.864,14.88-4.024L192.816,19.524z
			"/>
	</g>
</g>
<g>
	<g>
		<path d="M225.528,14.372c-5.496,0.472-11.032,1.136-16.448,1.992l2.496,15.808c5.032-0.8,10.184-1.424,15.304-1.856
			L225.528,14.372z"/>
	</g>
</g>
<g>
</g>
<g>
</g>
<g>
</g>
<g>
</g>
<g>
</g>
<g>
</g>
<g>
</g>
<g>
</g>
<g>
</g>
<g>
</g>
<g>
</g>
<g>
</g>
<g>
</g>
<g>
</g>
<g>
</g>
</svg>
