    <svg
      width="144"
      height="44"
      viewBox="0 0 144 44"
      fill="none"
      xmlns="http://www.w3.org/2000/svg"
    >
      <path
        opacity="0.5"
        fillRule="evenodd"
        clipRule="evenodd"
        d="M5.36584 2.68292C5.36584 4.16466 4.16466 5.36584 2.68292 5.36584C1.20118 5.36584 0 4.16466 0 2.68292C0 1.20118 1.20118 0 2.68292 0C4.16466 0 5.36584 1.20118 5.36584 2.68292ZM19.3186 2.68292C19.3186 4.16466 18.1174 5.36584 16.6357 5.36584C15.1539 5.36584 13.9527 4.16466 13.9527 2.68292C13.9527 1.20118 15.1539 0 16.6357 0C18.1174 0 19.3186 1.20118 19.3186 2.68292ZM29.7069 5.36584C31.1887 5.36584 32.3899 4.16466 32.3899 2.68292C32.3899 1.20118 31.1887 0 29.7069 0C28.2252 0 27.024 1.20118 27.024 2.68292C27.024 4.16466 28.2252 5.36584 29.7069 5.36584ZM46.3392 2.68292C46.3392 4.16466 45.138 5.36584 43.6563 5.36584C42.1745 5.36584 40.9733 4.16466 40.9733 2.68292C40.9733 1.20118 42.1745 0 43.6563 0C45.138 0 46.3392 1.20118 46.3392 2.68292ZM57.609 5.36584C59.0907 5.36584 60.2919 4.16466 60.2919 2.68292C60.2919 1.20118 59.0907 0 57.609 0C56.1273 0 54.9261 1.20118 54.9261 2.68292C54.9261 4.16466 56.1273 5.36584 57.609 5.36584ZM74.2412 2.68292C74.2412 4.16466 73.0401 5.36584 71.5583 5.36584C70.0766 5.36584 68.8754 4.16466 68.8754 2.68292C68.8754 1.20118 70.0766 0 71.5583 0C73.0401 0 74.2412 1.20118 74.2412 2.68292ZM85.5111 5.36584C86.9928 5.36584 88.194 4.16466 88.194 2.68292C88.194 1.20118 86.9928 0 85.5111 0C84.0293 0 82.8281 1.20118 82.8281 2.68292C82.8281 4.16466 84.0293 5.36584 85.5111 5.36584ZM102.142 2.68292C102.142 4.16466 100.941 5.36584 99.4593 5.36584C97.9776 5.36584 96.7764 4.16466 96.7764 2.68292C96.7764 1.20118 97.9776 0 99.4593 0C100.941 0 102.142 1.20118 102.142 2.68292ZM113.412 5.36584C114.894 5.36584 116.095 4.16466 116.095 2.68292C116.095 1.20118 114.894 0 113.412 0C111.93 0 110.729 1.20118 110.729 2.68292C110.729 4.16466 111.93 5.36584 113.412 5.36584ZM130.047 2.68292C130.047 4.16466 128.846 5.36584 127.365 5.36584C125.883 5.36584 124.682 4.16466 124.682 2.68292C124.682 1.20118 125.883 0 127.365 0C128.846 0 130.047 1.20118 130.047 2.68292ZM141.317 5.36584C142.799 5.36584 144 4.16466 144 2.68292C144 1.20118 142.799 0 141.317 0C139.835 0 138.634 1.20118 138.634 2.68292C138.634 4.16466 139.835 5.36584 141.317 5.36584ZM5.36584 15.5621C5.36584 17.0439 4.16466 18.245 2.68292 18.245C1.20118 18.245 0 17.0439 0 15.5621C0 14.0804 1.20118 12.8792 2.68292 12.8792C4.16466 12.8792 5.36584 14.0804 5.36584 15.5621ZM16.6357 18.245C18.1174 18.245 19.3186 17.0439 19.3186 15.5621C19.3186 14.0804 18.1174 12.8792 16.6357 12.8792C15.1539 12.8792 13.9527 14.0804 13.9527 15.5621C13.9527 17.0439 15.1539 18.245 16.6357 18.245ZM32.3899 15.5621C32.3899 17.0439 31.1887 18.245 29.7069 18.245C28.2252 18.245 27.024 17.0439 27.024 15.5621C27.024 14.0804 28.2252 12.8792 29.7069 12.8792C31.1887 12.8792 32.3899 14.0804 32.3899 15.5621ZM43.6563 18.245C45.138 18.245 46.3392 17.0439 46.3392 15.5621C46.3392 14.0804 45.138 12.8792 43.6563 12.8792C42.1745 12.8792 40.9733 14.0804 40.9733 15.5621C40.9733 17.0439 42.1745 18.245 43.6563 18.245ZM60.2919 15.5621C60.2919 17.0439 59.0907 18.245 57.609 18.245C56.1273 18.245 54.9261 17.0439 54.9261 15.5621C54.9261 14.0804 56.1273 12.8792 57.609 12.8792C59.0907 12.8792 60.2919 14.0804 60.2919 15.5621ZM71.5583 18.245C73.0401 18.245 74.2412 17.0439 74.2412 15.5621C74.2412 14.0804 73.0401 12.8792 71.5583 12.8792C70.0766 12.8792 68.8754 14.0804 68.8754 15.5621C68.8754 17.0439 70.0766 18.245 71.5583 18.245ZM88.194 15.5621C88.194 17.0439 86.9928 18.245 85.5111 18.245C84.0293 18.245 82.8281 17.0439 82.8281 15.5621C82.8281 14.0804 84.0293 12.8792 85.5111 12.8792C86.9928 12.8792 88.194 14.0804 88.194 15.5621ZM99.4593 18.2449C100.941 18.2449 102.142 17.0437 102.142 15.562C102.142 14.0802 100.941 12.8791 99.4593 12.8791C97.9776 12.8791 96.7764 14.0802 96.7764 15.562C96.7764 17.0437 97.9776 18.2449 99.4593 18.2449ZM5.36584 28.4396C5.36584 29.9213 4.16466 31.1225 2.68292 31.1225C1.20118 31.1225 0 29.9213 0 28.4396C0 26.9579 1.20118 25.7567 2.68292 25.7567C4.16466 25.7567 5.36584 26.9579 5.36584 28.4396ZM16.6357 31.1208C18.1174 31.1208 19.3186 29.9196 19.3186 28.4379C19.3186 26.9561 18.1174 25.755 16.6357 25.755C15.1539 25.755 13.9527 26.9561 13.9527 28.4379C13.9527 29.9196 15.1539 31.1208 16.6357 31.1208ZM32.3899 28.4379C32.3899 29.9196 31.1887 31.1208 29.7069 31.1208C28.2252 31.1208 27.024 29.9196 27.024 28.4379C27.024 26.9561 28.2252 25.755 29.7069 25.755C31.1887 25.755 32.3899 26.9561 32.3899 28.4379ZM43.6563 31.1208C45.138 31.1208 46.3392 29.9196 46.3392 28.4379C46.3392 26.9561 45.138 25.755 43.6563 25.755C42.1745 25.755 40.9733 26.9561 40.9733 28.4379C40.9733 29.9196 42.1745 31.1208 43.6563 31.1208ZM60.2919 28.4379C60.2919 29.9196 59.0907 31.1208 57.609 31.1208C56.1273 31.1208 54.9261 29.9196 54.9261 28.4379C54.9261 26.9561 56.1273 25.755 57.609 25.755C59.0907 25.755 60.2919 26.9561 60.2919 28.4379ZM2.68292 44C4.16466 44 5.36584 42.7988 5.36584 41.3171C5.36584 39.8353 4.16466 38.6342 2.68292 38.6342C1.20118 38.6342 0 39.8353 0 41.3171C0 42.7988 1.20118 44 2.68292 44ZM19.3186 41.3171C19.3186 42.7988 18.1174 44 16.6357 44C15.1539 44 13.9527 42.7988 13.9527 41.3171C13.9527 39.8353 15.1539 38.6342 16.6357 38.6342C18.1174 38.6342 19.3186 39.8353 19.3186 41.3171ZM29.7069 44C31.1887 44 32.3899 42.7988 32.3899 41.3171C32.3899 39.8353 31.1887 38.6342 29.7069 38.6342C28.2252 38.6342 27.024 39.8353 27.024 41.3171C27.024 42.7988 28.2252 44 29.7069 44Z"
        fill="#886DFF"
      />
    </svg>