<svg width="279" height="267" viewBox="0 0 279 267" fill="none" xmlns="http://www.w3.org/2000/svg">
<path d="M76.5 21.963L111.3 42.0548C116.25 44.9129 119.3 50.1949 119.3 55.9112V96.0948C119.3 101.811 116.25 107.093 111.3 109.951L76.5 130.043C71.5496 132.901 65.4504 132.901 60.5 130.043L25.7 109.951C20.7496 107.093 17.7 101.811 17.7 96.0948V55.9112C17.7 50.1949 20.7496 44.9129 25.7 42.0548L60.5 21.963C65.4504 19.1049 71.5496 19.1049 76.5 21.963Z" fill="#4C3D93"/>
<path fill-rule="evenodd" clip-rule="evenodd" d="M78.5 2.67949C72.312 -0.893166 64.688 -0.893162 58.5 2.67949L10 30.681C3.81198 34.2536 0 40.8562 0 48.0015V104.004C0 111.15 3.81198 117.752 10 121.325L58.5 149.326C64.688 152.899 72.312 152.899 78.5 149.326L127 121.325C133.188 117.752 137 111.15 137 104.004V48.0015C137 40.8562 133.188 34.2536 127 30.681L78.5 2.67949ZM58.5 18.4989C64.688 14.9262 72.312 14.9262 78.5 18.4989L113.3 38.5907C119.488 42.1633 123.3 48.7659 123.3 55.9112V96.0948C123.3 103.24 119.488 109.843 113.3 113.415L78.5 133.507C72.312 137.08 64.688 137.08 58.5 133.507L23.7 113.415C17.512 109.843 13.7 103.24 13.7 96.0948V55.9112C13.7 48.7659 17.512 42.1633 23.7 38.5907L58.5 18.4989Z" fill="#4C3D93"/>
<path d="M148.755 152.268L152.252 150.249L153.002 151.548L154.75 150.539C155.402 150.162 156.092 149.879 156.8 149.69L156.412 148.241C158.107 147.787 159.893 147.787 161.588 148.241L161.2 149.69C161.908 149.879 162.598 150.162 163.25 150.539L164.998 151.548L165.748 150.249L169.245 152.268L168.495 153.567L171.992 155.586L172.742 154.287L176.239 156.306L175.489 157.605L178.986 159.624L179.736 158.325L183.232 160.344L182.482 161.643L185.979 163.662L186.729 162.363L190.226 164.382L189.476 165.681L192.973 167.699L193.723 166.4L197.22 168.419L196.47 169.718L199.966 171.737L200.716 170.438L204.213 172.457L203.463 173.756L205.212 174.766C205.864 175.142 206.454 175.598 206.972 176.116L208.033 175.056C209.273 176.296 210.167 177.844 210.621 179.539L209.172 179.927C209.362 180.635 209.462 181.374 209.462 182.127V184.146H210.962V188.183H209.462V192.221H210.962V196.259H209.462V200.297H210.962V204.334H209.462V208.372H210.962V212.41H209.462V216.448H210.962V220.485H209.462V224.523H210.962V228.561H209.462V230.58C209.462 231.333 209.362 232.072 209.172 232.78L210.621 233.168C210.167 234.863 209.273 236.41 208.033 237.651L206.972 236.59C206.454 237.109 205.864 237.564 205.212 237.941L203.463 238.95L204.213 240.249L200.716 242.268L199.966 240.969L196.47 242.988L197.22 244.287L193.723 246.306L192.973 245.007L189.476 247.026L190.226 248.325L186.729 250.344L185.979 249.045L182.482 251.064L183.232 252.363L179.736 254.382L178.986 253.083L175.489 255.101L176.239 256.4L172.742 258.419L171.992 257.12L168.495 259.139L169.245 260.438L165.748 262.457L164.998 261.158L163.25 262.167C162.598 262.544 161.908 262.827 161.2 263.017L161.588 264.466C159.893 264.92 158.107 264.92 156.412 264.466L156.8 263.017C156.092 262.827 155.402 262.544 154.75 262.167L153.002 261.158L152.252 262.457L148.755 260.438L149.505 259.139L146.008 257.12L145.258 258.419L141.761 256.4L142.511 255.101L139.014 253.083L138.264 254.382L134.768 252.363L135.518 251.064L132.021 249.045L131.271 250.344L127.774 248.325L128.524 247.026L125.027 245.007L124.277 246.306L120.78 244.287L121.53 242.988L118.034 240.969L117.284 242.268L113.787 240.249L114.537 238.95L112.788 237.941C112.136 237.564 111.546 237.109 111.028 236.59L109.967 237.651C108.727 236.41 107.833 234.863 107.379 233.168L108.828 232.78C108.638 232.072 108.538 231.333 108.538 230.58V228.561H107.038V224.523H108.538V220.485H107.038V216.448H108.538V212.41H107.038V208.372H108.538V204.334H107.038V200.297H108.538V196.259H107.038V192.221H108.538V188.183H107.038V184.146H108.538V182.127C108.538 181.374 108.638 180.635 108.828 179.927L107.379 179.539C107.833 177.844 108.727 176.296 109.967 175.056L111.028 176.116C111.546 175.598 112.136 175.142 112.788 174.766L114.537 173.756L113.787 172.457L117.284 170.438L118.034 171.737L121.53 169.718L120.78 168.419L124.277 166.4L125.027 167.699L128.524 165.681L127.774 164.382L131.271 162.363L132.021 163.662L135.518 161.643L134.768 160.344L138.264 158.325L139.014 159.624L142.511 157.605L141.761 156.306L145.258 154.287L146.008 155.586L149.505 153.567L148.755 152.268Z" stroke="#313079" stroke-width="3" stroke-dasharray="4 4"/>
<path d="M246 94.0853C247.856 93.0135 250.144 93.0135 252 94.0853L271.981 105.621C273.837 106.693 274.981 108.674 274.981 110.817V133.889C274.981 136.033 273.837 138.014 271.981 139.085L252 150.621C250.144 151.693 247.856 151.693 246 150.621L226.019 139.085C224.163 138.014 223.019 136.033 223.019 133.889V110.817C223.019 108.674 224.163 106.693 226.019 105.621L246 94.0853Z" fill="#4C3D93"/>
</svg>
