<svg width="231" height="228" viewBox="0 0 231 228" fill="none" xmlns="http://www.w3.org/2000/svg">
<path fill-rule="evenodd" clip-rule="evenodd" d="M67.6196 40L37.9808 73.4595C36.4693 75.1659 36.7342 77.6865 38.5726 79.0896C40.4109 80.4926 43.1265 80.2467 44.6381 78.5403L75.627 43.5566C77.4577 41.49 77.4576 38.51 75.627 36.4434L44.6381 1.45968C43.1265 -0.246705 40.4109 -0.492622 38.5726 0.910412C36.7342 2.31345 36.4693 4.83413 37.9808 6.54052L67.6196 40Z" fill="#5155CA"/>
<path fill-rule="evenodd" clip-rule="evenodd" d="M33.0499 152.722C34.3079 153.801 34.4536 155.694 33.3753 156.952L6.72223 188.048C5.75926 189.171 5.75926 190.829 6.72223 191.952L33.3753 223.048C34.4536 224.306 34.3079 226.2 33.0499 227.278C31.7919 228.356 29.898 228.21 28.8198 226.952L2.16669 195.857C-0.722226 192.487 -0.722235 187.513 2.16669 184.143L28.8198 153.048C29.898 151.79 31.7919 151.644 33.0499 152.722ZM73.0499 152.722C74.3079 153.801 74.4536 155.694 73.3753 156.952L46.7222 188.048C45.7593 189.171 45.7593 190.829 46.7222 191.952L73.3753 223.048C74.4536 224.306 74.3079 226.2 73.0499 227.278C71.7919 228.356 69.898 228.21 68.8198 226.952L42.1667 195.857C39.2778 192.487 39.2778 187.513 42.1667 184.143L68.8198 153.048C69.898 151.79 71.7919 151.644 73.0499 152.722ZM113.375 156.952C114.454 155.694 114.308 153.801 113.05 152.722C111.792 151.644 109.898 151.79 108.82 153.048L82.1667 184.143C79.2778 187.513 79.2778 192.487 82.1667 195.857L108.82 226.952C109.898 228.21 111.792 228.356 113.05 227.278C114.308 226.2 114.454 224.306 113.375 223.048L86.7222 191.952C85.7593 190.829 85.7593 189.171 86.7222 188.048L113.375 156.952Z" fill="#896DFA"/>
<path fill-rule="evenodd" clip-rule="evenodd" d="M229.883 70.9979C228.352 72.5903 225.82 72.6399 224.228 71.1088L201 48.7746L177.772 71.1088C176.18 72.6399 173.648 72.5903 172.117 70.9979C170.585 69.4054 170.635 66.8733 172.228 65.3421L196.841 41.675C199.164 39.4417 202.836 39.4417 205.159 41.675L229.772 65.3421C231.365 66.8733 231.414 69.4054 229.883 70.9979ZM229.883 105.998C228.352 107.59 225.82 107.64 224.228 106.109L201 83.7746L177.772 106.109C176.18 107.64 173.648 107.59 172.117 105.998C170.585 104.405 170.635 101.873 172.228 100.342L196.841 76.675C199.164 74.4417 202.836 74.4417 205.159 76.675L229.772 100.342C231.365 101.873 231.414 104.405 229.883 105.998ZM224.228 141.109C225.82 142.64 228.352 142.59 229.883 140.998C231.414 139.405 231.365 136.873 229.772 135.342L205.159 111.675C202.836 109.442 199.164 109.442 196.841 111.675L172.228 135.342C170.635 136.873 170.585 139.405 172.117 140.998C173.648 142.59 176.18 142.64 177.772 141.109L201 118.775L224.228 141.109ZM229.883 175.998C228.352 177.59 225.82 177.64 224.228 176.109L201 153.775L177.772 176.109C176.18 177.64 173.648 177.59 172.117 175.998C170.585 174.405 170.635 171.873 172.228 170.342L196.841 146.675C199.164 144.442 202.836 144.442 205.159 146.675L229.772 170.342C231.365 171.873 231.414 174.405 229.883 175.998ZM224.228 211.109C225.82 212.64 228.352 212.59 229.883 210.998C231.414 209.405 231.365 206.873 229.772 205.342L205.159 181.675C202.836 179.442 199.164 179.442 196.841 181.675L172.228 205.342C170.635 206.873 170.585 209.405 172.117 210.998C173.648 212.59 176.18 212.64 177.772 211.109L201 188.775L224.228 211.109Z" fill="#191641"/>
</svg>
