<svg width="21" height="21" viewBox="0 0 21 21" fill="none" xmlns="http://www.w3.org/2000/svg">
<path d="M2.16675 16.0966C2.16675 17.5133 3.25008 18.5966 4.66675 18.5966H16.3334C17.7501 18.5966 18.8334 17.5133 18.8334 16.0966V9.42993H2.16675V16.0966ZM16.3334 3.5966H14.6667V2.76326C14.6667 2.26326 14.3334 1.92993 13.8334 1.92993C13.3334 1.92993 13.0001 2.26326 13.0001 2.76326V3.5966H8.00008V2.76326C8.00008 2.26326 7.66675 1.92993 7.16675 1.92993C6.66675 1.92993 6.33341 2.26326 6.33341 2.76326V3.5966H4.66675C3.25008 3.5966 2.16675 4.67993 2.16675 6.0966V7.76326H18.8334V6.0966C18.8334 4.67993 17.7501 3.5966 16.3334 3.5966Z" fill="white"/>
</svg>
