<svg width="21" height="21" viewBox="0 0 21 21" fill="none" xmlns="http://www.w3.org/2000/svg">
<g clip-path="url(#clip0_817_1171)">
<path d="M10.5 20.2632C10.5 20.2632 3.5 11.1332 3.5 7.26318C3.5 6.34393 3.68106 5.43368 4.03284 4.5844C4.38463 3.73512 4.90024 2.96345 5.55025 2.31344C6.20026 1.66343 6.97194 1.14781 7.82122 0.796027C8.6705 0.444244 9.58075 0.263184 10.5 0.263184C11.4193 0.263184 12.3295 0.444244 13.1788 0.796027C14.0281 1.14781 14.7997 1.66343 15.4497 2.31344C16.0998 2.96345 16.6154 3.73512 16.9672 4.5844C17.3189 5.43368 17.5 6.34393 17.5 7.26318C17.5 11.1332 10.5 20.2632 10.5 20.2632ZM10.5 9.26318C11.0304 9.26318 11.5391 9.05247 11.9142 8.6774C12.2893 8.30232 12.5 7.79362 12.5 7.26318C12.5 6.73275 12.2893 6.22404 11.9142 5.84897C11.5391 5.4739 11.0304 5.26318 10.5 5.26318C9.96957 5.26318 9.46086 5.4739 9.08579 5.84897C8.71071 6.22404 8.5 6.73275 8.5 7.26318C8.5 7.79362 8.71071 8.30232 9.08579 8.6774C9.46086 9.05247 9.96957 9.26318 10.5 9.26318Z" fill="white"/>
</g>
<defs>
<clipPath id="clip0_817_1171">
<rect width="20" height="20" fill="white" transform="translate(0.5 0.263184)"/>
</clipPath>
</defs>
</svg>
