<svg id="Capa_1" enable-background="new 0 0 510.619 510.619" height="512" viewBox="0 0 510.619 510.619" width="512" xmlns="http://www.w3.org/2000/svg"><path d="m431.92 184.11c0-25.88-5.56-50.46-15.56-72.6l-.01.01-161.54 114.195-73.97 156.335 30.97 42.79c3.08 4.25 5.55 8.9 7.35 13.83l19.04 52.28c5.93 16.3 29.02 16.2 34.83-.15l18.41-51.88c1.81-5.09 4.34-9.9 7.5-14.27l94.16-130.07h-.01c24.28-30.25 38.83-68.66 38.83-110.47z" fill="#00c89e"/><path d="m255 7.5c-53.21.09-101.05 23.99-133.41 61.54l77.97 66.7 65.914 9.803 39.546-130.943c-15.86-4.65-32.65-7.13-50.02-7.1z" fill="#00abf2"/><path d="m305.02 14.6-153.097 175.865 92.799 118.204 171.628-197.149.01-.01c-21.02-46.56-61.64-82.37-111.34-96.91z" fill="#00c3ff"/><g id="XMLID_114_"><g><path d="m296.127 424.84-30.97-42.79-50.99-70.437-33.327 70.437 30.97 42.79c3.08 4.25 5.55 8.9 7.35 13.83l19.04 52.28c5.93 16.3 29.02 16.2 34.83-.15l18.41-51.88c1.519-4.273 3.552-8.344 6.033-12.128-.436-.658-.882-1.311-1.346-1.952z" fill="#00ab7e"/><path d="m121.59 69.04c-26.83 31.1-43.03 71.58-42.89 115.65.09 25.66 5.64 50.02 15.58 71.99l70.005-27.724 35.225-93.146.05-.07z" fill="#ff4f80"/><path d="m163.017 184.69c-.077-24.249 4.802-47.407 13.669-68.518l-55.096-47.132c-26.83 31.1-43.03 71.58-42.89 115.65.09 25.66 5.64 50.02 15.58 71.99l70.005-27.724 2.749-7.27c-2.587-11.926-3.973-24.301-4.017-36.996z" fill="#ff1146"/><path d="m311.11 232.4-111.6-96.59-33.467 38.441-71.763 82.429c6.15 13.64 13.99 26.37 23.25 37.9h-.01l63.32 87.47 130.27-149.65c-2.386 2.756 0 0 0 0z" fill="#ffdc5a"/><path d="m201.837 294.58h.01c-9.26-11.53-17.1-24.26-23.25-37.9-9.94-21.97-15.49-46.33-15.58-71.99-.008-2.382.042-4.751.129-7.111l-68.866 79.101c6.15 13.64 13.99 26.37 23.25 37.9h-.01l63.32 87.47 46.034-52.883z" fill="#ffc027"/></g><g><path d="m199.51 135.81c13.53-15.63 33.51-25.51 55.8-25.51 40.76 0 73.8 33.05 73.8 73.81 0 18.47-6.78 35.35-18 48.29-13.53 15.63-33.51 25.51-55.8 25.51-40.76 0-73.8-33.04-73.8-73.8 0-18.47 6.78-35.35 18-48.3z" fill="#fff"/></g></g><path d="m205.907 69.04c23.617-27.405 55.486-47.526 91.664-56.44-13.637-3.352-27.896-5.125-42.571-5.1-53.21.09-101.05 23.99-133.41 61.54l55.096 47.132c7.247-17.255 17.154-33.144 29.221-47.132z" fill="#008cc9"/><path d="m423.196 108.424c-22.17-49.106-64.475-85.927-116.066-101.02-16.756-4.913-34.186-7.404-51.817-7.404-.108 0-.218 0-.326 0-53.334.09-104.026 23.47-139.076 64.141-28.973 33.585-44.851 76.405-44.711 120.576.092 26.177 5.558 51.429 16.243 75.046 6.318 14.012 14.398 27.211 24.019 39.238l94.276 130.24c2.669 3.683 4.814 7.72 6.375 11.995l19.039 52.277c3.784 10.4 13.362 17.105 24.423 17.105h.103c11.113-.042 20.699-6.835 24.421-17.311l18.408-51.875c1.571-4.419 3.762-8.587 6.509-12.385l74.155-102.437c2.429-3.355 1.678-8.044-1.677-10.473-3.356-2.43-8.044-1.678-10.473 1.677l-74.158 102.439c-3.584 4.957-6.44 10.391-8.491 16.157l-18.409 51.877c-1.913 5.383-6.597 7.316-10.342 7.33-1.803-.042-7.921-.494-10.374-7.235l-19.042-52.286c-2.039-5.584-4.839-10.853-8.319-15.655l-27.478-37.961 38.632-44.379c2.72-3.124 2.392-7.862-.732-10.581-3.125-2.72-7.862-2.393-10.581.732l-36.347 41.754-57.576-79.54c-.131-.2-.273-.396-.425-.584-7.925-9.869-14.711-20.604-20.23-31.968l71.277-81.87c-.266 2.67-.414 5.359-.414 8.063 0 44.829 36.471 81.3 81.3 81.3 6.5 0 12.908-.781 19.106-2.279l-35.457 40.732c-2.72 3.124-2.392 7.862.732 10.581 1.421 1.237 3.175 1.843 4.921 1.843 2.094 0 4.177-.872 5.66-2.576l163.755-188.1c6.893 18.654 10.393 38.278 10.393 58.499 0 38.896-12.856 75.473-37.179 105.775-.151.188-.292.382-.422.581l-.817 1.128c-2.43 3.355-1.68 8.044 1.675 10.474s8.043 1.679 10.474-1.675l1.007-1.39c25.965-32.479 40.26-73.265 40.26-114.89 0-26.386-5.459-51.851-16.224-75.686zm-168.183-93.424c12.278-.02 24.465 1.277 36.355 3.86l-27.715 31.836c-2.72 3.124-2.392 7.861.732 10.581 1.42 1.237 3.175 1.843 4.921 1.843 2.094 0 4.177-.872 5.66-2.576l32.507-37.34c43.805 14.165 79.864 45.552 100.022 87.064l-71.298 81.894c.265-2.666.413-5.352.413-8.053 0-44.834-36.471-81.31-81.3-81.31-6.504 0-12.915.782-19.116 2.282l17.778-20.421c2.72-3.125 2.392-7.862-.732-10.582s-7.861-2.392-10.581.732l-43.873 50.396-66.463-56.857c31.923-33.91 76.214-53.27 122.69-53.349zm-168.813 169.667c-.121-38.07 12.725-75.054 36.316-104.964l66.426 56.824-92.335 106.058c-6.833-18.464-10.337-37.892-10.407-57.918zm102.81-.557c0-15.946 5.742-31.355 16.168-43.389 0-.001.001-.001.002-.002 12.608-14.565 30.879-22.919 50.129-22.919 36.558 0 66.3 29.747 66.3 66.31 0 15.949-5.741 31.354-16.17 43.381-12.608 14.565-30.879 22.918-50.129 22.918-36.558.001-66.3-29.741-66.3-66.299z"/></svg>