<svg width="860" height="210" viewBox="0 0 860 210" fill="none" xmlns="http://www.w3.org/2000/svg">
<g clip-path="url(#clip0_311_2444)">
<path d="M323.094 235.546C315.766 239.786 315.766 246.713 323.094 250.941L407.646 299.777C414.973 304.004 426.964 304.004 434.303 299.777L518.843 250.941C526.171 246.713 526.171 239.786 518.843 235.546L434.303 186.711C426.964 182.483 414.973 182.483 407.646 186.711L323.094 235.546Z" fill="#E8E2F4" stroke="#2E214A" stroke-linejoin="round"/>
<path d="M460.569 160.67V197.38C460.569 200.175 462.404 202.958 466.074 205.077L550.626 253.901C554.728 256.072 559.315 257.164 563.955 257.075V220.365C559.314 220.461 554.726 219.369 550.626 217.192L466.085 168.368C462.404 166.248 460.569 163.453 460.569 160.67Z" fill="#E8E2F4"/>
<path d="M460.569 160.67V197.38C460.569 200.175 462.404 202.958 466.074 205.077L550.626 253.901C554.728 256.072 559.315 257.164 563.955 257.075V220.365C559.314 220.461 554.726 219.369 550.626 217.192L466.085 168.368C462.404 166.248 460.569 163.453 460.569 160.67Z" fill="#BDBCEE"/>
<path d="M460.569 160.67V197.38C460.569 200.175 462.404 202.958 466.074 205.077L550.626 253.901C554.728 256.072 559.315 257.164 563.955 257.075V220.365C559.314 220.461 554.726 219.369 550.626 217.192L466.085 168.368C462.404 166.248 460.569 163.453 460.569 160.67Z" stroke="#2E214A" stroke-linejoin="round"/>
<path d="M466.074 152.973C458.735 157.201 458.735 164.128 466.074 168.368L550.626 217.192C557.953 221.431 569.956 221.431 577.283 217.192L661.824 168.368C669.151 164.128 669.151 157.201 661.824 152.973L577.283 104.137C569.956 99.8978 557.953 99.8978 550.626 104.137L466.074 152.973Z" fill="#E8E2F4" stroke="#2E214A" stroke-linejoin="round"/>
<path d="M667.316 197.368C667.316 200.163 665.481 202.946 661.812 205.065L577.271 253.901C573.169 256.072 568.583 257.164 563.943 257.075V220.365C568.585 220.458 573.173 219.361 577.271 217.18L661.812 168.356C665.481 166.236 667.316 163.441 667.316 160.658V197.368Z" fill="#E8E2F4"/>
<path d="M667.316 197.368C667.316 200.163 665.481 202.946 661.812 205.065L577.271 253.901C573.169 256.072 568.583 257.164 563.943 257.075V220.365C568.585 220.458 573.173 219.361 577.271 217.18L661.812 168.356C665.481 166.236 667.316 163.441 667.316 160.658V197.368Z" fill="url(#paint0_linear_311_2444)"/>
<path d="M667.316 197.368C667.316 200.163 665.481 202.946 661.812 205.065L577.271 253.901C573.169 256.072 568.583 257.164 563.943 257.075V220.365C568.585 220.458 573.173 219.361 577.271 217.18L661.812 168.356C665.481 166.236 667.316 163.441 667.316 160.658V197.368Z" stroke="#2E214A" stroke-linejoin="round"/>
<path d="M522.027 157.366C518.891 159.178 518.891 162.103 522.027 163.962L558.237 184.875C560.006 185.768 561.961 186.233 563.943 186.233C565.924 186.233 567.879 185.768 569.648 184.875L605.858 163.962C608.994 162.151 608.994 159.226 605.858 157.366L569.648 136.454C567.879 135.561 565.924 135.095 563.943 135.095C561.961 135.095 560.006 135.561 558.237 136.454L522.027 157.366Z" fill="url(#paint1_linear_311_2444)" stroke="#2E214A" stroke-linejoin="round"/>
<path d="M579.946 179.025V142.315L605.988 157.71C608.947 158.894 607.961 162.841 606.58 163.631L579.946 179.025Z" fill="#BDBCEE"/>
<path d="M563.931 135.104V186.237" stroke="#2E214A" stroke-linejoin="round"/>
<path d="M522.027 157.366C518.891 159.178 518.891 162.103 522.027 163.962L558.237 184.875C560.006 185.768 561.961 186.233 563.943 186.233C565.924 186.233 567.879 185.768 569.648 184.875L605.858 163.962C608.994 162.151 608.994 159.226 605.858 157.366L569.648 136.454C567.879 135.561 565.924 135.095 563.943 135.095C561.961 135.095 560.006 135.561 558.237 136.454L522.027 157.366Z" stroke="#2E214A" stroke-linejoin="round"/>
<path d="M562.782 186.13V184.946L562.19 183.17L558.639 180.802L552.721 179.617V181.986L555.088 183.17L559.231 185.538L562.782 186.13Z" fill="#BDBCEE"/>
<path d="M568.701 185.538L565.15 186.13L565.742 184.354L567.517 182.578L569.885 180.209L575.803 179.025L577.579 180.209L575.211 181.394L572.252 183.762L568.701 185.538Z" fill="url(#paint2_linear_311_2444)"/>
<path d="M698.945 137.733L714.83 146.91L698.945 156.147L683.071 146.981L698.945 137.733Z" fill="#E8E2F4" stroke="#2E214A" stroke-linejoin="round"/>
<path d="M222.289 45.9818L206.404 55.1474L349.36 137.863L365.246 128.697L222.289 45.9818Z" fill="#E8E2F4" stroke="#2E214A" stroke-linejoin="round"/>
<path d="M206.404 55.1474V73.5022L349.36 156.218V137.863L206.404 55.1474Z" fill="#E8E2F4"/>
<path d="M206.404 55.1474V73.5022L349.36 156.218V137.863L206.404 55.1474Z" fill="#BDBCEE"/>
<path d="M206.404 55.1474V73.5022L349.36 156.218V137.863L206.404 55.1474Z" stroke="#2E214A" stroke-linejoin="round"/>
<path d="M365.245 128.697V147.04L349.36 156.218V137.863L365.245 128.697Z" fill="#E8E2F4"/>
<path d="M365.245 128.697V147.04L349.36 156.218V137.863L365.245 128.697Z" fill="url(#paint3_linear_311_2444)"/>
<path d="M365.245 128.697V147.04L349.36 156.218V137.863L365.245 128.697Z" stroke="#2E214A" stroke-linejoin="round"/>
<path d="M428.787 36.8043L444.672 45.9818L301.704 128.697L285.818 119.52L428.787 36.8043Z" fill="#E8E2F4" stroke="#2E214A" stroke-linejoin="round"/>
<path d="M444.672 45.9818V64.3248L301.704 147.04V128.697L444.672 45.9818Z" fill="#E8E2F4"/>
<path d="M444.672 45.9818V64.3248L301.704 147.04V128.697L444.672 45.9818Z" fill="url(#paint4_linear_311_2444)"/>
<path d="M444.672 45.9818V64.3248L301.704 147.04V128.697L444.672 45.9818Z" stroke="#2E214A" stroke-linejoin="round"/>
<path d="M285.818 119.52V137.863L301.704 147.04V128.697L285.818 119.52Z" fill="#E8E2F4"/>
<path d="M285.818 119.52V137.863L301.704 147.04V128.697L285.818 119.52Z" fill="#BDBCEE"/>
<path d="M285.818 119.52V137.863L301.704 147.04V128.697L285.818 119.52Z" stroke="#2E214A" stroke-linejoin="round"/>
<path d="M269.945 183.502L285.818 192.679L142.862 275.394L126.977 266.217L269.945 183.502Z" fill="#E8E2F4" stroke="#2E214A" stroke-linejoin="round"/>
<path d="M285.818 192.679V211.034L142.862 293.749V275.394L285.818 192.679Z" fill="#E8E2F4"/>
<path d="M285.818 192.679V211.034L142.862 293.749V275.394L285.818 192.679Z" fill="url(#paint5_linear_311_2444)"/>
<path d="M285.818 192.679V211.034L142.862 293.749V275.394L285.818 192.679Z" stroke="#2E214A" stroke-linejoin="round"/>
<path d="M556 201.963V220.306L540.115 229.484V211.141L556 201.963Z" fill="#E8E2F4" stroke="#2E214A" stroke-linejoin="round"/>
<path d="M714.831 146.91V257.122L698.945 266.371V156.147L714.831 146.91Z" fill="#E8E2F4"/>
<path d="M714.831 146.91V257.122L698.945 266.371V156.147L714.831 146.91Z" fill="url(#paint6_linear_311_2444)"/>
<path d="M714.831 146.91V257.122L698.945 266.371V156.147L714.831 146.91Z" stroke="#2E214A" stroke-linejoin="round"/>
<path d="M563.931 59.7185L579.817 68.8841L563.943 78.1326L548.058 68.9551L563.931 59.7185Z" fill="#E8E2F4" stroke="#2E214A" stroke-linejoin="round"/>
<path d="M563.943 186.237V78.1326L579.816 68.8841V179.002" fill="#E8E2F4"/>
<path d="M563.943 186.237V78.1326L579.816 68.8841V179.002" fill="url(#paint7_linear_311_2444)"/>
<path d="M563.943 186.237V78.1326L579.816 68.8841V179.002" stroke="#2E214A" stroke-linejoin="round"/>
<path d="M563.943 186.237V78.1326L548.058 68.9551V179.002" fill="#E8E2F4"/>
<path d="M563.943 186.237V78.1326L548.058 68.9551V179.002" fill="#BDBCEE"/>
<path d="M563.943 186.237V78.1326L548.058 68.9551V179.002" stroke="#2E214A" stroke-linejoin="round"/>
<path d="M698.945 156.111L841.961 238.756L841.973 238.732V257.075L857.858 266.252V247.909L857.822 229.483L548.058 50.5647V68.9196L683.071 146.934V146.91V257.193L698.945 266.371V156.076V156.111Z" fill="#E8E2F4"/>
<path d="M698.945 156.111L841.961 238.756L841.973 238.732V257.075L857.858 266.252V247.909L857.822 229.483L548.058 50.5647V68.9196L683.071 146.934V146.91V257.193L698.945 266.371V156.076V156.111Z" fill="#BDBCEE"/>
<path d="M698.945 156.111L841.961 238.756L841.973 238.732V257.075L857.858 266.252V247.909L857.822 229.483L548.058 50.5647V68.9196L683.071 146.934V146.91V257.193L698.945 266.371V156.076V156.111Z" stroke="#2E214A" stroke-linejoin="round"/>
<path d="M563.919 59.7422V78.097L420.963 160.659V142.458L563.919 59.7422Z" fill="#E8E2F4"/>
<path d="M563.919 59.7422V78.097L420.963 160.659V142.458L563.919 59.7422Z" fill="url(#paint8_linear_311_2444)"/>
<path d="M563.919 59.7422V78.097L420.963 160.659V142.458L563.919 59.7422Z" stroke="#2E214A" stroke-linejoin="round"/>
<path d="M420.963 142.315L405.196 133.28V151.635L420.963 160.659L540.115 229.341V210.986L420.963 142.315Z" fill="#E8E2F4"/>
<path d="M420.963 142.315L405.196 133.28V151.635L420.963 160.659L540.115 229.341V210.986L420.963 142.315Z" fill="#BDBCEE"/>
<path d="M420.963 142.315L405.196 133.28V151.635L420.963 160.659L540.115 229.341V210.986L420.963 142.315Z" stroke="#2E214A" stroke-linejoin="round"/>
<path d="M555.989 201.951L571.862 211.14L428.906 293.714L428.858 293.678L555.989 367.11L540.115 376.287L413.02 449.683L556 532.268L540.115 541.446L397.135 458.849L381.25 449.695L524.23 367.121L397.135 293.714L413.032 284.536H413.02L540.103 211.129L420.963 142.315L405.196 133.209L548.034 50.5647H548.058L563.943 41.3873L873.684 220.377L857.811 229.555L563.931 59.7422H563.919L436.955 133.209L436.967 133.197L555.989 201.951Z" fill="#E8E2F4" stroke="#2E214A" stroke-linejoin="round"/>
<path d="M698.909 9.24828L714.794 18.4257L587.818 91.8808L571.933 82.7152L698.909 9.24828Z" fill="#E8E2F4" stroke="#2E214A" stroke-linejoin="round"/>
<path d="M714.794 18.4257V36.7688L587.818 110.236V91.8808L714.794 18.4257Z" fill="#E8E2F4"/>
<path d="M714.794 18.4257V36.7688L587.818 110.236V91.8808L714.794 18.4257Z" fill="url(#paint9_linear_311_2444)"/>
<path d="M714.794 18.4257V36.7688L587.818 110.236V91.8808L714.794 18.4257Z" stroke="#2E214A" stroke-linejoin="round"/>
<path d="M571.933 82.7153V101.058L587.818 110.236V91.8809L571.933 82.7153Z" fill="#E8E2F4"/>
<path d="M571.933 82.7153V101.058L587.818 110.236V91.8809L571.933 82.7153Z" fill="#BDBCEE"/>
<path d="M571.933 82.7153V101.058L587.818 110.236V91.8809L571.933 82.7153Z" stroke="#2E214A" stroke-linejoin="round"/>
<path d="M619.53 0L603.645 9.17745L746.601 91.8929L762.486 82.7154L619.53 0Z" fill="#E8E2F4" stroke="#2E214A" stroke-linejoin="round"/>
<path d="M603.645 9.17744V27.5323L746.601 110.248V91.8929L603.645 9.17744Z" fill="#E8E2F4"/>
<path d="M603.645 9.17744V27.5323L746.601 110.248V91.8929L603.645 9.17744Z" fill="#BDBCEE"/>
<path d="M603.645 9.17744V27.5323L746.601 110.248V91.8929L603.645 9.17744Z" stroke="#2E214A" stroke-linejoin="round"/>
<path d="M762.487 82.7153V101.07L746.601 110.248V91.8927L762.487 82.7153Z" fill="#E8E2F4"/>
<path d="M762.487 82.7153V101.07L746.601 110.248V91.8927L762.487 82.7153Z" fill="url(#paint10_linear_311_2444)"/>
<path d="M762.487 82.7153V101.07L746.601 110.248V91.8927L762.487 82.7153Z" stroke="#2E214A" stroke-linejoin="round"/>
<path d="M254.166 156.087L238.281 165.253L381.427 248.004L397.312 238.827L254.166 156.087Z" fill="#E8E2F4" stroke="#2E214A" stroke-linejoin="round"/>
<path d="M238.281 165.253V183.608L381.427 266.359V248.004L238.281 165.253Z" fill="#E8E2F4"/>
<path d="M238.281 165.253V183.608L381.427 266.359V248.004L238.281 165.253Z" fill="#BDBCEE"/>
<path d="M238.281 165.253V183.608L381.427 266.359V248.004L238.281 165.253Z" stroke="#2E214A" stroke-linejoin="round"/>
<path d="M762.285 137.697L778.171 146.875L619.684 238.732L603.798 229.555L762.285 137.697Z" fill="#E8E2F4" stroke="#2E214A" stroke-linejoin="round"/>
<path d="M778.17 146.875V165.23L619.684 257.075V238.732L778.17 146.875Z" fill="#E8E2F4"/>
<path d="M778.17 146.875V165.23L619.684 257.075V238.732L778.17 146.875Z" fill="url(#paint11_linear_311_2444)"/>
<path d="M778.17 146.875V165.23L619.684 257.075V238.732L778.17 146.875Z" stroke="#2E214A" stroke-linejoin="round"/>
<path d="M522.027 157.366C518.891 159.178 518.891 162.103 522.027 163.962L558.237 184.875C560.006 185.768 561.961 186.233 563.943 186.233C565.924 186.233 567.879 185.768 569.648 184.875L605.858 163.962C608.994 162.151 608.994 159.226 605.858 157.366" stroke="#2E214A" stroke-linejoin="round"/>
</g>
<defs>
<linearGradient id="paint0_linear_311_2444" x1="567.802" y1="131.805" x2="682.426" y2="250.715" gradientUnits="userSpaceOnUse">
<stop stop-color="#2DCCFD"/>
<stop offset="1" stop-color="#AD20E2"/>
</linearGradient>
<linearGradient id="paint1_linear_311_2444" x1="522.98" y1="119.792" x2="576.526" y2="209.496" gradientUnits="userSpaceOnUse">
<stop stop-color="#2DCCFD"/>
<stop offset="1" stop-color="#AD20E2"/>
</linearGradient>
<linearGradient id="paint2_linear_311_2444" x1="513.141" y1="149.421" x2="508.992" y2="156.266" gradientUnits="userSpaceOnUse">
<stop stop-color="#983DE7"/>
<stop offset="1" stop-color="#973FE7"/>
</linearGradient>
<linearGradient id="paint3_linear_311_2444" x1="349.953" y1="120.462" x2="377.828" y2="136.031" gradientUnits="userSpaceOnUse">
<stop stop-color="#2DCCFD"/>
<stop offset="1" stop-color="#AD20E2"/>
</linearGradient>
<linearGradient id="paint4_linear_311_2444" x1="307.041" y1="15.7406" x2="421.565" y2="172.514" gradientUnits="userSpaceOnUse">
<stop stop-color="#2DCCFD"/>
<stop offset="1" stop-color="#AD20E2"/>
</linearGradient>
<linearGradient id="paint5_linear_311_2444" x1="148.199" y1="162.434" x2="262.743" y2="319.205" gradientUnits="userSpaceOnUse">
<stop stop-color="#2DCCFD"/>
<stop offset="1" stop-color="#AD20E2"/>
</linearGradient>
<linearGradient id="paint6_linear_311_2444" x1="498.271" y1="142.907" x2="658.889" y2="339.664" gradientUnits="userSpaceOnUse">
<stop stop-color="#2DCCFD"/>
<stop offset="1" stop-color="#AD20E2"/>
</linearGradient>
<linearGradient id="paint7_linear_311_2444" x1="571.809" y1="-81.9333" x2="650.168" y2="-58.2991" gradientUnits="userSpaceOnUse">
<stop stop-color="#2DCCFD"/>
<stop offset="1" stop-color="#AD20E2"/>
</linearGradient>
<linearGradient id="paint8_linear_311_2444" x1="409.493" y1="-3.93158" x2="534.298" y2="166.483" gradientUnits="userSpaceOnUse">
<stop stop-color="#2DCCFD"/>
<stop offset="1" stop-color="#AD20E2"/>
</linearGradient>
<linearGradient id="paint9_linear_311_2444" x1="592.558" y1="-9.04793" x2="697.295" y2="131.119" gradientUnits="userSpaceOnUse">
<stop stop-color="#2DCCFD"/>
<stop offset="1" stop-color="#AD20E2"/>
</linearGradient>
<linearGradient id="paint10_linear_311_2444" x1="747.194" y1="74.4763" x2="775.075" y2="90.042" gradientUnits="userSpaceOnUse">
<stop stop-color="#2DCCFD"/>
<stop offset="1" stop-color="#AD20E2"/>
</linearGradient>
<linearGradient id="paint11_linear_311_2444" x1="625.6" y1="113.898" x2="749.846" y2="286.801" gradientUnits="userSpaceOnUse">
<stop stop-color="#2DCCFD"/>
<stop offset="1" stop-color="#AD20E2"/>
</linearGradient>
<clipPath id="clip0_311_2444">
<rect width="1112" height="780" fill="white"/>
</clipPath>
</defs>
</svg>
