<svg width="856" height="210" viewBox="0 0 856 210" fill="none" xmlns="http://www.w3.org/2000/svg">
<g clip-path="url(#clip0_311_2661)">
<path d="M532.906 235.546C540.234 239.786 540.234 246.713 532.906 250.941L448.354 299.777C441.027 304.004 429.036 304.004 421.697 299.777L337.157 250.941C329.829 246.713 329.829 239.786 337.157 235.546L421.697 186.711C429.036 182.483 441.027 182.483 448.354 186.711L532.906 235.546Z" fill="#E8E2F4" stroke="#2E214A" stroke-linejoin="round"/>
<path d="M395.431 160.67V197.38C395.431 200.175 393.596 202.958 389.926 205.077L305.374 253.901C301.272 256.072 296.685 257.164 292.045 257.075V220.365C296.686 220.461 301.274 219.369 305.374 217.192L389.915 168.368C393.596 166.248 395.431 163.453 395.431 160.67Z" fill="#E8E2F4"/>
<path d="M395.431 160.67V197.38C395.431 200.175 393.596 202.958 389.926 205.077L305.374 253.901C301.272 256.072 296.685 257.164 292.045 257.075V220.365C296.686 220.461 301.274 219.369 305.374 217.192L389.915 168.368C393.596 166.248 395.431 163.453 395.431 160.67Z" fill="#BDBCEE"/>
<path d="M395.431 160.67V197.38C395.431 200.175 393.596 202.958 389.926 205.077L305.374 253.901C301.272 256.072 296.685 257.164 292.045 257.075V220.365C296.686 220.461 301.274 219.369 305.374 217.192L389.915 168.368C393.596 166.248 395.431 163.453 395.431 160.67Z" stroke="#2E214A" stroke-linejoin="round"/>
<path d="M389.926 152.973C397.265 157.201 397.265 164.128 389.926 168.368L305.374 217.192C298.047 221.431 286.044 221.431 278.717 217.192L194.176 168.368C186.849 164.128 186.849 157.201 194.176 152.973L278.717 104.137C286.044 99.8978 298.047 99.8978 305.374 104.137L389.926 152.973Z" fill="#E8E2F4" stroke="#2E214A" stroke-linejoin="round"/>
<path d="M188.684 197.368C188.684 200.163 190.519 202.946 194.188 205.065L278.729 253.901C282.831 256.072 287.417 257.164 292.057 257.075V220.365C287.415 220.458 282.827 219.361 278.729 217.18L194.188 168.356C190.519 166.236 188.684 163.441 188.684 160.658V197.368Z" fill="#E8E2F4"/>
<path d="M188.684 197.368C188.684 200.163 190.519 202.946 194.188 205.065L278.729 253.901C282.831 256.072 287.417 257.164 292.057 257.075V220.365C287.415 220.458 282.827 219.361 278.729 217.18L194.188 168.356C190.519 166.236 188.684 163.441 188.684 160.658V197.368Z" fill="url(#paint0_linear_311_2661)"/>
<path d="M188.684 197.368C188.684 200.163 190.519 202.946 194.188 205.065L278.729 253.901C282.831 256.072 287.417 257.164 292.057 257.075V220.365C287.415 220.458 282.827 219.361 278.729 217.18L194.188 168.356C190.519 166.236 188.684 163.441 188.684 160.658V197.368Z" stroke="#2E214A" stroke-linejoin="round"/>
<path d="M333.973 157.366C337.109 159.178 337.109 162.103 333.973 163.962L297.763 184.875C295.994 185.768 294.039 186.233 292.057 186.233C290.076 186.233 288.121 185.768 286.352 184.875L250.142 163.962C247.006 162.151 247.006 159.226 250.142 157.366L286.352 136.454C288.121 135.561 290.076 135.095 292.057 135.095C294.039 135.095 295.994 135.561 297.763 136.454L333.973 157.366Z" fill="url(#paint1_linear_311_2661)" stroke="#2E214A" stroke-linejoin="round"/>
<path d="M276.054 179.025V142.315L250.012 157.71C247.053 158.894 248.039 162.841 249.42 163.631L276.054 179.025Z" fill="#BDBCEE"/>
<path d="M292.069 135.104V186.237" stroke="#2E214A" stroke-linejoin="round"/>
<path d="M333.973 157.366C337.109 159.178 337.109 162.103 333.973 163.962L297.763 184.875C295.994 185.768 294.039 186.233 292.057 186.233C290.076 186.233 288.121 185.768 286.352 184.875L250.142 163.962C247.006 162.151 247.006 159.226 250.142 157.366L286.352 136.454C288.121 135.561 290.076 135.095 292.057 135.095C294.039 135.095 295.994 135.561 297.763 136.454L333.973 157.366Z" stroke="#2E214A" stroke-linejoin="round"/>
<path d="M293.218 186.13V184.946L293.81 183.17L297.361 180.802L303.279 179.617V181.986L300.912 183.17L296.769 185.538L293.218 186.13Z" fill="#BDBCEE"/>
<path d="M287.299 185.538L290.85 186.13L290.258 184.354L288.483 182.578L286.115 180.209L280.197 179.025L278.421 180.209L280.789 181.394L283.748 183.762L287.299 185.538Z" fill="url(#paint2_linear_311_2661)"/>
<path d="M157.055 137.733L141.17 146.91L157.055 156.147L172.929 146.981L157.055 137.733Z" fill="#E8E2F4" stroke="#2E214A" stroke-linejoin="round"/>
<path d="M633.711 45.9818L649.596 55.1474L506.64 137.863L490.754 128.697L633.711 45.9818Z" fill="#E8E2F4" stroke="#2E214A" stroke-linejoin="round"/>
<path d="M649.596 55.1474V73.5022L506.64 156.218V137.863L649.596 55.1474Z" fill="#E8E2F4"/>
<path d="M649.596 55.1474V73.5022L506.64 156.218V137.863L649.596 55.1474Z" fill="#BDBCEE"/>
<path d="M649.596 55.1474V73.5022L506.64 156.218V137.863L649.596 55.1474Z" stroke="#2E214A" stroke-linejoin="round"/>
<path d="M490.755 128.697V147.04L506.64 156.218V137.863L490.755 128.697Z" fill="#E8E2F4"/>
<path d="M490.755 128.697V147.04L506.64 156.218V137.863L490.755 128.697Z" fill="url(#paint3_linear_311_2661)"/>
<path d="M490.755 128.697V147.04L506.64 156.218V137.863L490.755 128.697Z" stroke="#2E214A" stroke-linejoin="round"/>
<path d="M427.213 36.8043L411.328 45.9818L554.296 128.697L570.182 119.52L427.213 36.8043Z" fill="#E8E2F4" stroke="#2E214A" stroke-linejoin="round"/>
<path d="M411.328 45.9818V64.3248L554.296 147.04V128.697L411.328 45.9818Z" fill="#E8E2F4"/>
<path d="M411.328 45.9818V64.3248L554.296 147.04V128.697L411.328 45.9818Z" fill="url(#paint4_linear_311_2661)"/>
<path d="M411.328 45.9818V64.3248L554.296 147.04V128.697L411.328 45.9818Z" stroke="#2E214A" stroke-linejoin="round"/>
<path d="M570.182 119.52V137.863L554.296 147.04V128.697L570.182 119.52Z" fill="#E8E2F4"/>
<path d="M570.182 119.52V137.863L554.296 147.04V128.697L570.182 119.52Z" fill="#BDBCEE"/>
<path d="M570.182 119.52V137.863L554.296 147.04V128.697L570.182 119.52Z" stroke="#2E214A" stroke-linejoin="round"/>
<path d="M586.055 183.502L570.182 192.679L713.138 275.394L729.023 266.217L586.055 183.502Z" fill="#E8E2F4" stroke="#2E214A" stroke-linejoin="round"/>
<path d="M570.182 192.679V211.034L713.138 293.749V275.394L570.182 192.679Z" fill="#E8E2F4"/>
<path d="M570.182 192.679V211.034L713.138 293.749V275.394L570.182 192.679Z" fill="url(#paint5_linear_311_2661)"/>
<path d="M570.182 192.679V211.034L713.138 293.749V275.394L570.182 192.679Z" stroke="#2E214A" stroke-linejoin="round"/>
<path d="M300 201.963V220.306L315.885 229.484V211.141L300 201.963Z" fill="#E8E2F4" stroke="#2E214A" stroke-linejoin="round"/>
<path d="M141.169 146.91V257.122L157.055 266.371V156.147L141.169 146.91Z" fill="#E8E2F4"/>
<path d="M141.169 146.91V257.122L157.055 266.371V156.147L141.169 146.91Z" fill="url(#paint6_linear_311_2661)"/>
<path d="M141.169 146.91V257.122L157.055 266.371V156.147L141.169 146.91Z" stroke="#2E214A" stroke-linejoin="round"/>
<path d="M292.069 59.7185L276.183 68.8841L292.057 78.1326L307.942 68.9551L292.069 59.7185Z" fill="#E8E2F4" stroke="#2E214A" stroke-linejoin="round"/>
<path d="M292.057 186.237V78.1326L276.184 68.8841V179.002" fill="#E8E2F4"/>
<path d="M292.057 186.237V78.1326L276.184 68.8841V179.002" fill="url(#paint7_linear_311_2661)"/>
<path d="M292.057 186.237V78.1326L276.184 68.8841V179.002" stroke="#2E214A" stroke-linejoin="round"/>
<path d="M292.057 186.237V78.1326L307.942 68.9551V179.002" fill="#E8E2F4"/>
<path d="M292.057 186.237V78.1326L307.942 68.9551V179.002" fill="#BDBCEE"/>
<path d="M292.057 186.237V78.1326L307.942 68.9551V179.002" stroke="#2E214A" stroke-linejoin="round"/>
<path d="M157.055 156.111L14.0393 238.756L14.0274 238.732V257.075L-1.85797 266.252V247.909L-1.82245 229.483L307.942 50.5647V68.9196L172.929 146.934V146.91V257.193L157.055 266.371V156.076V156.111Z" fill="#E8E2F4"/>
<path d="M157.055 156.111L14.0393 238.756L14.0274 238.732V257.075L-1.85797 266.252V247.909L-1.82245 229.483L307.942 50.5647V68.9196L172.929 146.934V146.91V257.193L157.055 266.371V156.076V156.111Z" fill="#BDBCEE"/>
<path d="M157.055 156.111L14.0393 238.756L14.0274 238.732V257.075L-1.85797 266.252V247.909L-1.82245 229.483L307.942 50.5647V68.9196L172.929 146.934V146.91V257.193L157.055 266.371V156.076V156.111Z" stroke="#2E214A" stroke-linejoin="round"/>
<path d="M292.081 59.7422V78.097L435.037 160.659V142.458L292.081 59.7422Z" fill="#E8E2F4"/>
<path d="M292.081 59.7422V78.097L435.037 160.659V142.458L292.081 59.7422Z" fill="url(#paint8_linear_311_2661)"/>
<path d="M292.081 59.7422V78.097L435.037 160.659V142.458L292.081 59.7422Z" stroke="#2E214A" stroke-linejoin="round"/>
<path d="M435.037 142.315L450.804 133.28V151.635L435.037 160.659L315.885 229.341V210.986L435.037 142.315Z" fill="#E8E2F4"/>
<path d="M435.037 142.315L450.804 133.28V151.635L435.037 160.659L315.885 229.341V210.986L435.037 142.315Z" fill="#BDBCEE"/>
<path d="M435.037 142.315L450.804 133.28V151.635L435.037 160.659L315.885 229.341V210.986L435.037 142.315Z" stroke="#2E214A" stroke-linejoin="round"/>
<path d="M300.011 201.951L284.138 211.14L427.094 293.714L427.142 293.678L300.011 367.11L315.885 376.287L442.98 449.683L300 532.268L315.885 541.446L458.865 458.849L474.75 449.695L331.77 367.121L458.865 293.714L442.968 284.536H442.98L315.897 211.129L435.037 142.315L450.804 133.209L307.966 50.5647H307.942L292.057 41.3873L-17.6843 220.377L-1.81073 229.555L292.069 59.7422H292.081L419.045 133.209L419.033 133.197L300.011 201.951Z" fill="#E8E2F4" stroke="#2E214A" stroke-linejoin="round"/>
<path d="M157.091 9.24828L141.206 18.4257L268.182 91.8808L284.067 82.7152L157.091 9.24828Z" fill="#E8E2F4" stroke="#2E214A" stroke-linejoin="round"/>
<path d="M141.206 18.4257V36.7688L268.182 110.236V91.8808L141.206 18.4257Z" fill="#E8E2F4"/>
<path d="M141.206 18.4257V36.7688L268.182 110.236V91.8808L141.206 18.4257Z" fill="url(#paint9_linear_311_2661)"/>
<path d="M141.206 18.4257V36.7688L268.182 110.236V91.8808L141.206 18.4257Z" stroke="#2E214A" stroke-linejoin="round"/>
<path d="M284.067 82.7153V101.058L268.182 110.236V91.8809L284.067 82.7153Z" fill="#E8E2F4"/>
<path d="M284.067 82.7153V101.058L268.182 110.236V91.8809L284.067 82.7153Z" fill="#BDBCEE"/>
<path d="M284.067 82.7153V101.058L268.182 110.236V91.8809L284.067 82.7153Z" stroke="#2E214A" stroke-linejoin="round"/>
<path d="M236.47 0L252.355 9.17745L109.399 91.8929L93.5135 82.7154L236.47 0Z" fill="#E8E2F4" stroke="#2E214A" stroke-linejoin="round"/>
<path d="M252.355 9.17744V27.5323L109.399 110.248V91.8929L252.355 9.17744Z" fill="#E8E2F4"/>
<path d="M252.355 9.17744V27.5323L109.399 110.248V91.8929L252.355 9.17744Z" fill="#BDBCEE"/>
<path d="M252.355 9.17744V27.5323L109.399 110.248V91.8929L252.355 9.17744Z" stroke="#2E214A" stroke-linejoin="round"/>
<path d="M93.5135 82.7153V101.07L109.399 110.248V91.8927L93.5135 82.7153Z" fill="#E8E2F4"/>
<path d="M93.5135 82.7153V101.07L109.399 110.248V91.8927L93.5135 82.7153Z" fill="url(#paint10_linear_311_2661)"/>
<path d="M93.5135 82.7153V101.07L109.399 110.248V91.8927L93.5135 82.7153Z" stroke="#2E214A" stroke-linejoin="round"/>
<path d="M601.834 156.087L617.719 165.253L474.573 248.004L458.688 238.827L601.834 156.087Z" fill="#E8E2F4" stroke="#2E214A" stroke-linejoin="round"/>
<path d="M617.719 165.253V183.608L474.573 266.359V248.004L617.719 165.253Z" fill="#E8E2F4"/>
<path d="M617.719 165.253V183.608L474.573 266.359V248.004L617.719 165.253Z" fill="#BDBCEE"/>
<path d="M617.719 165.253V183.608L474.573 266.359V248.004L617.719 165.253Z" stroke="#2E214A" stroke-linejoin="round"/>
<path d="M93.7149 137.697L77.8295 146.875L236.316 238.732L252.202 229.555L93.7149 137.697Z" fill="#E8E2F4" stroke="#2E214A" stroke-linejoin="round"/>
<path d="M77.8296 146.875V165.23L236.316 257.075V238.732L77.8296 146.875Z" fill="#E8E2F4"/>
<path d="M77.8296 146.875V165.23L236.316 257.075V238.732L77.8296 146.875Z" fill="url(#paint11_linear_311_2661)"/>
<path d="M77.8296 146.875V165.23L236.316 257.075V238.732L77.8296 146.875Z" stroke="#2E214A" stroke-linejoin="round"/>
<path d="M333.973 157.366C337.109 159.178 337.109 162.103 333.973 163.962L297.763 184.875C295.994 185.768 294.039 186.233 292.057 186.233C290.076 186.233 288.121 185.768 286.352 184.875L250.142 163.962C247.006 162.151 247.006 159.226 250.142 157.366" stroke="#2E214A" stroke-linejoin="round"/>
</g>
<defs>
<linearGradient id="paint0_linear_311_2661" x1="288.198" y1="131.805" x2="173.574" y2="250.715" gradientUnits="userSpaceOnUse">
<stop stop-color="#2DCCFD"/>
<stop offset="1" stop-color="#AD20E2"/>
</linearGradient>
<linearGradient id="paint1_linear_311_2661" x1="333.02" y1="119.792" x2="279.474" y2="209.496" gradientUnits="userSpaceOnUse">
<stop stop-color="#2DCCFD"/>
<stop offset="1" stop-color="#AD20E2"/>
</linearGradient>
<linearGradient id="paint2_linear_311_2661" x1="342.859" y1="149.421" x2="347.008" y2="156.266" gradientUnits="userSpaceOnUse">
<stop stop-color="#983DE7"/>
<stop offset="1" stop-color="#973FE7"/>
</linearGradient>
<linearGradient id="paint3_linear_311_2661" x1="506.047" y1="120.462" x2="478.172" y2="136.031" gradientUnits="userSpaceOnUse">
<stop stop-color="#2DCCFD"/>
<stop offset="1" stop-color="#AD20E2"/>
</linearGradient>
<linearGradient id="paint4_linear_311_2661" x1="548.959" y1="15.7406" x2="434.435" y2="172.514" gradientUnits="userSpaceOnUse">
<stop stop-color="#2DCCFD"/>
<stop offset="1" stop-color="#AD20E2"/>
</linearGradient>
<linearGradient id="paint5_linear_311_2661" x1="707.801" y1="162.434" x2="593.257" y2="319.205" gradientUnits="userSpaceOnUse">
<stop stop-color="#2DCCFD"/>
<stop offset="1" stop-color="#AD20E2"/>
</linearGradient>
<linearGradient id="paint6_linear_311_2661" x1="357.729" y1="142.907" x2="197.111" y2="339.664" gradientUnits="userSpaceOnUse">
<stop stop-color="#2DCCFD"/>
<stop offset="1" stop-color="#AD20E2"/>
</linearGradient>
<linearGradient id="paint7_linear_311_2661" x1="284.191" y1="-81.9333" x2="205.832" y2="-58.2991" gradientUnits="userSpaceOnUse">
<stop stop-color="#2DCCFD"/>
<stop offset="1" stop-color="#AD20E2"/>
</linearGradient>
<linearGradient id="paint8_linear_311_2661" x1="446.507" y1="-3.93158" x2="321.702" y2="166.483" gradientUnits="userSpaceOnUse">
<stop stop-color="#2DCCFD"/>
<stop offset="1" stop-color="#AD20E2"/>
</linearGradient>
<linearGradient id="paint9_linear_311_2661" x1="263.442" y1="-9.04793" x2="158.705" y2="131.119" gradientUnits="userSpaceOnUse">
<stop stop-color="#2DCCFD"/>
<stop offset="1" stop-color="#AD20E2"/>
</linearGradient>
<linearGradient id="paint10_linear_311_2661" x1="108.806" y1="74.4763" x2="80.9255" y2="90.042" gradientUnits="userSpaceOnUse">
<stop stop-color="#2DCCFD"/>
<stop offset="1" stop-color="#AD20E2"/>
</linearGradient>
<linearGradient id="paint11_linear_311_2661" x1="230.4" y1="113.898" x2="106.154" y2="286.801" gradientUnits="userSpaceOnUse">
<stop stop-color="#2DCCFD"/>
<stop offset="1" stop-color="#AD20E2"/>
</linearGradient>
<clipPath id="clip0_311_2661">
<rect width="1112" height="780" fill="white" transform="matrix(-1 0 0 1 856 0)"/>
</clipPath>
</defs>
</svg>
