<svg width="256" height="218" viewBox="0 0 256 218" fill="none" xmlns="http://www.w3.org/2000/svg">
<path fill-rule="evenodd" clip-rule="evenodd" d="M4.39969 151.425C-0.209182 157.554 -1.30197 165.663 1.61943 172.753L14.3776 203.717C18.0445 212.617 27.177 217.982 36.748 216.957C43.6632 216.217 50.3286 215.547 56.7934 214.95C67.9922 213.915 76.1972 204.093 81.4506 194.149C81.6964 193.684 81.9518 193.221 82.2171 192.762L95.296 170.109C106.738 150.29 132.081 143.499 151.9 154.942C171.719 166.384 178.509 191.726 167.067 211.545V211.545C166.811 211.988 167.11 212.545 167.62 212.577C182.672 213.507 198.445 214.961 215.76 216.961C224.823 218.008 233.611 213.341 237.702 205.186L253.718 173.263C257.382 165.958 256.574 157.213 251.723 150.636C217.488 104.217 197.631 70.4047 170.137 12.4208C166.555 4.86514 158.96 0.00796796 150.598 0.00668707L106.944 2.53573e-07C98.5641 -0.00128342 90.9566 4.87129 87.3803 12.45C60.9633 68.4323 41.175 102.52 4.39969 151.425Z" fill="#ECC89D"/>
</svg>
