<svg width="655" height="204" viewBox="0 0 655 204" fill="none" xmlns="http://www.w3.org/2000/svg">
<path d="M167.935 3.94531C186.573 3.94531 199.349 17.0735 199.349 35.3592C199.349 53.6448 186.573 66.773 167.935 66.773H139.172C136.284 66.773 133.943 69.114 133.943 72.0018V80.7676C133.943 83.6554 131.602 85.9964 128.714 85.9964H108.696C105.808 85.9964 103.467 83.6554 103.467 80.7676V9.17411C103.467 6.28633 105.808 3.94531 108.696 3.94531H167.935ZM162.075 40.9855C165.122 40.9855 168.873 40.9855 168.873 35.3592C168.873 29.7328 165.122 29.7328 162.075 29.7328H139.172C136.284 29.7328 133.943 32.0738 133.943 34.9616V35.7567C133.943 38.6445 136.284 40.9855 139.172 40.9855H162.075Z" fill="#4121CF"/>
<path d="M228.073 3.94531C230.961 3.94531 233.302 6.28633 233.302 9.17411V80.7676C233.302 83.6554 230.961 85.9964 228.073 85.9964H208.054C205.167 85.9964 202.826 83.6554 202.826 80.7676V9.17411C202.826 6.28633 205.167 3.94531 208.054 3.94531H228.073Z" fill="#4121CF"/>
<path fill-rule="evenodd" clip-rule="evenodd" d="M1.68042 57.8364C-0.0798941 60.1774 -0.497278 63.2743 0.618527 65.9824L5.49138 77.809C6.89195 81.2082 10.38 83.2572 14.0356 82.8658C16.6767 82.5831 19.2224 82.3273 21.6915 82.0991C25.9688 81.7037 29.1026 77.9524 31.1091 74.1543C31.203 73.9766 31.3006 73.7999 31.4019 73.6244L36.3973 64.9721C40.7677 57.4025 50.447 54.8089 58.0166 59.1792C65.5863 63.5496 68.1799 73.2289 63.8095 80.7986V80.7986C63.7118 80.9678 63.826 81.1807 64.0211 81.1928C69.7698 81.5481 75.7943 82.1035 82.4077 82.8675C85.8691 83.2673 89.2255 81.4846 90.788 78.3701L96.9052 66.1771C98.3049 63.3872 97.9961 60.047 96.1434 57.535C83.0675 39.8057 75.4834 26.8914 64.9825 4.745C63.6141 1.85917 60.7132 0.00401985 57.5194 0.00353063L40.8464 0.000976659C37.6457 0.000486374 34.74 1.86151 33.3741 4.75615C23.2844 26.1381 15.7264 39.1575 1.68042 57.8364Z" fill="#4121CF"/>
<path fill-rule="evenodd" clip-rule="evenodd" d="M269.86 3.89643C266.755 4.99903 266.504 9.85594 265.924 13.0997V13.0997C264.412 21.5585 264.399 28.1859 265.914 36.6534C266.595 40.4603 263.775 44.0776 259.908 44.0776H248.042C247.821 44.0776 247.604 44.0656 247.389 44.0424C246.664 43.9636 245.927 44.4959 245.958 45.2244V45.2244C245.987 45.9077 246.677 46.3447 247.356 46.2671C247.581 46.2414 247.81 46.2282 248.042 46.2282H259.923C263.786 46.2282 266.604 49.8372 265.924 53.6395C264.412 62.0983 264.399 68.7257 265.914 77.1931V77.1931C266.093 78.1977 266.604 79.1784 267.546 79.5726C275.261 82.8032 285.167 84.3954 297.468 84.3954C327.999 84.3954 344.833 74.4248 348.157 52.2432C348.6 49.2868 346.186 46.7691 343.197 46.7691H322.018C319.428 46.7691 317.369 48.7516 316.193 51.0589C313.638 56.0717 307.754 58.6079 297.468 58.6079C279.534 58.6079 276.369 50.8717 276.369 42.0805C276.369 33.4065 279.417 25.7875 297.468 25.7875C307.719 25.7875 313.598 28.2323 316.167 33.1221C317.369 35.4108 319.423 37.3918 322.008 37.3918H343.196C346.185 37.3918 348.6 34.8731 348.151 31.9171C344.804 9.862 327.878 0 297.468 0C286.364 0 277.211 1.2863 269.86 3.89643ZM351.09 42.0805C351.09 70.6811 366.562 84.3954 402.664 84.3954C438.65 84.3954 454.239 70.5639 454.239 42.0805C454.239 13.7142 438.65 0 402.664 0C366.562 0 351.09 13.597 351.09 42.0805ZM423.763 42.0805C423.763 50.7544 420.598 58.6079 402.664 58.6079C384.73 58.6079 381.566 50.8717 381.566 42.0805C381.566 33.4065 384.613 25.7875 402.664 25.7875C420.716 25.7875 423.763 33.5237 423.763 42.0805ZM533.054 6.40095C533.054 3.51317 535.395 1.17216 538.283 1.17216H558.301C561.189 1.17216 563.53 3.51317 563.53 6.40095V77.9944C563.53 80.8822 561.189 83.2232 558.301 83.2232H526.331C524.663 83.2232 523.095 82.4273 522.11 81.0808L492.328 40.3514C491.048 38.6019 488.278 39.5068 488.278 41.6741V77.9944C488.278 80.8822 485.937 83.2232 483.049 83.2232H463.031C460.143 83.2232 457.802 80.8822 457.802 77.9944V6.40096C457.802 3.51317 460.143 1.17216 463.031 1.17216H495.001C496.669 1.17216 498.237 1.96807 499.222 3.3146L529.004 44.044C530.284 45.7935 533.054 44.8886 533.054 42.7212V6.40095ZM649.775 26.9596C652.663 26.9596 655.004 24.6186 655.004 21.7308V6.40095C655.004 3.51317 652.663 1.17216 649.775 1.17216H573.493C570.605 1.17216 568.264 3.51317 568.264 6.40096V77.9944C568.264 80.8822 570.605 83.2232 573.493 83.2232H593.511C596.399 83.2232 598.74 80.8822 598.74 77.9944V66.7671C598.74 63.8793 601.081 61.5383 603.969 61.5383H642.742C645.63 61.5383 647.971 59.1973 647.971 56.3095V40.9796C647.971 38.0918 645.63 35.7508 642.742 35.7508H603.135C600.708 35.7508 598.74 33.7828 598.74 31.3552C598.74 28.9276 600.708 26.9596 603.135 26.9596H649.775Z" fill="#4121CF"/>
<rect x="239.867" y="10.6455" width="18.3008" height="30.2523" rx="5.97577" fill="#4121CF"/>
<rect x="239.867" y="48.3691" width="18.3008" height="30.2523" rx="5.97577" fill="#4121CF"/>
<path fill-rule="evenodd" clip-rule="evenodd" d="M241.223 102.797C217.826 100.769 197.408 118.966 197.408 142.451C197.408 165.927 217.809 184.121 241.197 182.095C306.595 176.429 356.152 176.446 422.048 182.126C445.468 184.145 465.884 165.917 465.884 142.411C465.884 118.924 445.501 100.701 422.1 102.71C356.41 108.349 306.918 108.488 241.223 102.797ZM276.034 145.75H255.883V124.724H244.494V155.387H276.034V145.75ZM311.866 142.377C311.778 132.346 305.646 128.666 294.87 128.666C290.007 128.666 284.313 129.63 279.056 131.338L282.473 138.785C287.291 137.734 291.146 137.427 294.519 137.427C298.024 137.427 301.353 137.558 301.353 140.712C298.943 139.836 296.14 139.354 292.46 139.354C284.795 139.354 276.91 141.15 276.91 147.984C276.91 153.679 282.166 155.825 288.167 155.825C292.723 155.825 297.279 155.168 301.353 152.189V155.387H311.866V142.377ZM301.353 145.706V146.801C298.724 147.94 294.87 148.816 291.321 148.816C288.649 148.816 287.423 148.597 287.423 147.152C287.423 145.487 289.525 145.049 294.388 145.049C297.41 145.049 299.688 145.268 301.353 145.706ZM348.502 129.104H337.989V133.047C335.711 130.287 331.988 128.666 326.688 128.666C318.584 128.666 312.758 132.521 312.758 141.369C312.758 150.218 318.584 154.073 326.688 154.073C331.988 154.073 335.711 152.452 337.989 149.692C337.902 156.351 335.142 157.577 330.017 157.577C324.98 157.577 319.875 156.583 316.671 155.96C316.252 155.878 315.867 155.803 315.517 155.737V164.279C318.014 164.936 324.454 166.338 331.944 166.338C340.968 166.338 348.502 162.527 348.502 152.014V129.104ZM337.989 141.369C337.989 144.348 336.193 145.312 330.63 145.312C325.067 145.312 323.271 144.348 323.271 141.369C323.271 138.391 325.067 137.427 330.63 137.427C336.193 137.427 337.989 138.391 337.989 141.369ZM349.804 142.246C349.804 151.97 356.506 155.825 367.676 155.825C378.846 155.825 385.548 151.97 385.548 142.246C385.548 132.521 378.846 128.666 367.676 128.666C356.506 128.666 349.804 132.521 349.804 142.246ZM375.035 142.246C375.035 146.1 372.363 147.064 367.676 147.064C362.989 147.064 360.317 146.1 360.317 142.246C360.317 138.391 362.989 137.427 367.676 137.427C372.363 137.427 375.035 138.391 375.035 142.246ZM396.507 146.319H385.994C385.994 154.555 394.755 155.825 404.698 155.825C414.642 155.825 421.651 154.555 421.651 146.538C421.651 139.661 415.036 139.048 404.698 138.522C404.142 138.493 403.624 138.466 403.142 138.442C397.865 138.171 396.945 138.124 396.945 137.12C396.945 136.113 398.478 136.113 403.822 136.113C408.509 136.113 410.262 136.113 410.262 137.515H420.775C420.775 129.936 413.985 128.666 404.26 128.666C394.536 128.666 386.432 129.936 386.432 137.427C386.432 144.129 391.732 145.049 403.822 145.531C404.544 145.561 405.197 145.586 405.787 145.608C410.348 145.783 411.138 145.813 411.138 146.976C411.138 148.115 410.13 148.378 404.26 148.378C397.909 148.378 396.507 147.809 396.507 146.319Z" fill="#4121CF"/>
</svg>
