<?xml version="1.0" encoding="utf-8"?>
<!-- Generator: Adobe Illustrator 23.0.1, SVG Export Plug-In . SVG Version: 6.00 Build 0)  -->
<svg version="1.1" id="Layer_1" xmlns="http://www.w3.org/2000/svg" xmlns:xlink="http://www.w3.org/1999/xlink" x="0px" y="0px"
	 viewBox="0 0 273.24 179.867" style="enable-background:new 0 0 273.24 179.867;" xml:space="preserve">
<style type="text/css">
	.st0{fill:#FFFFFF;}
	.st1{fill:#2C282C;}
	.st2{fill:#173647;}
	.st3{fill:#50E4EA;}
	.st4{fill:#FCDC00;}
	.st5{fill:#85EA2D;}
	.st6{fill:#F4CF14;}
	.st7{fill:none;}
	.st8{fill:#04AADB;}
	.st9{fill:#07CED6;}
	.st10{fill:#63DB2A;}
	.st11{fill:#FF730B;}
	.st12{fill:#17D1FC;}
	.st13{fill:#00AADB;}
	.st14{fill:#758491;}
</style>
<g>
	<path class="st11" d="M146.006,115.022h-38.051l-6.75,21h51.551L146.006,115.022z M248.047,136.023l-19.962-61.465l12.894-39.701
		L193.03,0.247l-33.772,24.775H94.702L60.93,0.239L12.981,34.96l12.894,39.658L5.913,136.023h62.978l-4.893-15.102l62.986-45.774
		l62.978,45.782l-4.893,15.094H248.047z M107.955,115.022l-6.75,21h51.551l-6.75-21H107.955z M146.006,115.022h-38.051l-6.75,21
		h51.551L146.006,115.022z"/>
	<g>
		<path class="st2" d="M17.864,156.298c0,0-5.4-0.616-7.636-0.616c-3.24,0-4.898,1.157-4.898,3.432c0,2.468,1.388,3.046,5.9,4.281
			c5.554,1.542,7.558,3.008,7.558,7.52c0,5.785-3.624,8.291-8.831,8.291c-3.432,0-8.638-1.042-8.638-1.042l0.424-3.432
			c0,0,5.206,0.695,7.944,0.695c3.277,0,4.781-1.466,4.781-4.243c0-2.237-1.195-3.008-5.245-3.972
			c-5.707-1.465-8.176-3.201-8.176-7.789c0-5.322,3.51-7.52,8.793-7.52c3.355,0,8.369,0.925,8.369,0.925L17.864,156.298z"/>
		<path class="st2" d="M28.805,152.023h7.696l5.9,20.632l5.9-20.632h7.503v27h-4v-23h-0.569l-6.598,22h-4.474l-6.599-22h0.239v23h-5
			V152.023z"/>
		<path class="st2" d="M121.805,152.023h20v4h-8v23h-4v-23h-8V152.023z"/>
		<path class="st2" d="M159.993,152.023c5.245,0,8.06,2.138,8.06,7.036c0,3.201-1.002,4.867-3.124,6.024
			c2.275,0.887,3.779,2.669,3.779,6.295c0,5.4-3.277,7.645-8.407,7.645h-10.496v-27H159.993z M153.805,156.023v8h6.11
			c2.623,0,3.779-1.531,3.779-4.116c0-2.544-1.311-3.884-3.933-3.884H153.805z M153.805,167.023v8h6.265
			c2.66,0,4.242-0.934,4.242-4.097c0-3.008-2.237-3.903-4.319-3.903H153.805z"/>
		<path class="st2" d="M179.805,152.023h16v4h-12v8h10v3h-10v8h12v4h-16V152.023z"/>
		<path class="st2" d="M211.331,152.023h8.522l6.556,27h-4.319l-1.951-8h-9.095l-1.95,8h-4.281L211.331,152.023z M211.899,167.023
			h7.41l-2.734-11h-1.928L211.899,167.023z"/>
		<path class="st2" d="M239.805,171.023v8h-4v-27h10.159c5.823,0,8.947,3.508,8.947,9.369c0,3.741-1.504,7.321-4.319,8.632
			l4.358,8.999h-4.705l-3.818-8H239.805z M245.964,156.023h-6.159v11h6.237c3.239,0,4.473-2.82,4.473-5.557
			C250.515,158.456,249.05,156.023,245.964,156.023z"/>
		<path class="st2" d="M71.635,152.023h8.522l6.556,27h-4.319l-1.951-8h-9.095l-1.95,8h-4.281L71.635,152.023z M72.204,167.023h7.41
			l-2.734-11h-1.928L72.204,167.023z"/>
		<path class="st2" d="M100.805,171.023v8h-5v-27h10.464c5.823,0,8.947,3.508,8.947,9.369c0,3.741-1.504,7.321-4.319,8.632
			l4.358,8.999h-4.705l-3.818-8H100.805z M106.269,156.023h-5.464v11h5.542c3.239,0,4.473-2.82,4.473-5.557
			C110.82,158.456,109.355,156.023,106.269,156.023z"/>
	</g>
</g>
<g>
	<g>
		<rect x="263.301" y="174.38" class="st7" width="9.937" height="10.973"/>
		<path class="st2" d="M265.346,178.941h-0.7v-3.683h-1.26v-0.601h3.22v0.601h-1.26V178.941z"/>
		<path class="st2" d="M269.414,178.941l-1.242-3.577h-0.023c0.033,0.531,0.05,1.029,0.05,1.494v2.083h-0.636v-4.283h0.987
			l1.189,3.407h0.018l1.225-3.407h0.99v4.283h-0.674v-2.118c0-0.213,0.005-0.49,0.016-0.832s0.02-0.549,0.028-0.621h-0.023
			l-1.286,3.571H269.414z"/>
	</g>
</g>
</svg>
